<svg width="34" height="34" viewBox="0 0 34 34" fill="none" xmlns="http://www.w3.org/2000/svg">
<g id="Icon">
<path id="Vector" d="M4.13324 11.6342V11.9822H4.48127H29.5398H29.8878V11.6342V10.068C29.8878 9.28345 29.5761 8.53099 29.0213 7.97621C28.4666 7.42142 27.7141 7.10974 26.9295 7.10974H7.09154C6.30695 7.10974 5.55449 7.42142 4.9997 7.97621C4.44492 8.53099 4.13324 9.28345 4.13324 10.068V11.6342ZM29.8878 13.7224V13.3744H29.5398H4.48127H4.13324V13.7224V23.6414C4.13324 24.426 4.44492 25.1784 4.9997 25.7332C5.55449 26.288 6.30695 26.5997 7.09154 26.5997H26.9295C27.7141 26.5997 28.4666 26.288 29.0213 25.7332C29.5761 25.1784 29.8878 24.426 29.8878 23.6414V13.7224ZM2.7411 10.068C2.7411 8.91423 3.19945 7.80768 4.01531 6.99182C4.83118 6.17595 5.93773 5.7176 7.09154 5.7176H26.9295C28.0833 5.7176 29.1899 6.17595 30.0057 6.99182C30.8216 7.80768 31.28 8.91423 31.28 10.068V23.6414C31.28 24.7952 30.8216 25.9017 30.0057 26.7176C29.1899 27.5335 28.0833 27.9918 26.9295 27.9918H7.09154C5.93773 27.9918 4.83118 27.5335 4.01531 26.7176C3.19945 25.9017 2.7411 24.7952 2.7411 23.6414V10.068ZM22.231 20.3351H25.3634C25.548 20.3351 25.725 20.4084 25.8556 20.5389C25.9861 20.6695 26.0594 20.8465 26.0594 21.0311C26.0594 21.2157 25.9861 21.3928 25.8556 21.5233C25.725 21.6539 25.548 21.7272 25.3634 21.7272H22.231C22.0464 21.7272 21.8694 21.6539 21.7388 21.5233C21.6083 21.3928 21.535 21.2157 21.535 21.0311C21.535 20.8465 21.6083 20.6695 21.7388 20.5389C21.8694 20.4084 22.0464 20.3351 22.231 20.3351Z" fill="#4CAF4F" stroke="#4CAF4F" stroke-width="0.696069"/>
</g>
</svg>
