<svg width="34" height="34" viewBox="0 0 34 34" fill="none" xmlns="http://www.w3.org/2000/svg">
<g id="Icon">
<g id="Group 2">
<path id="Vector" d="M20.1288 16.891C19.9612 16.891 19.8055 16.8449 19.6673 16.7708V16.7728C19.6673 17.0365 19.5648 17.2841 19.3788 17.4696C19.1929 17.6556 18.9454 17.7581 18.682 17.7581C18.512 17.7581 18.3544 17.7108 18.2146 17.6347C18.2005 17.876 18.1041 18.1015 17.9321 18.2737C17.7461 18.4596 17.4986 18.5621 17.2351 18.5621C16.7114 18.5621 16.2862 18.1505 16.2556 17.6346C16.0935 17.7222 15.9103 17.7681 15.7214 17.7559C15.2063 17.7222 14.8029 17.2771 14.8029 16.7424V12.3108L14.2983 13.1851C14.1061 13.5194 13.7463 13.727 13.3589 13.727C13.1702 13.727 12.9837 13.6775 12.8186 13.5829C12.6129 13.4637 12.4658 13.2723 12.4046 13.0433C12.3432 12.8142 12.375 12.5746 12.4939 12.3693C12.494 12.3693 14.1449 9.51042 14.2456 9.33481C14.2576 9.3084 14.2917 9.23182 14.3208 9.16655C14.3485 9.10423 14.3723 9.04028 14.395 8.97599C14.8929 7.57043 16.1257 6.69733 17.6124 6.69733C19.5431 6.69733 21.1138 8.40054 21.1138 10.4941L21.114 15.9056C21.114 16.169 21.0116 16.4164 20.8258 16.6026C20.6399 16.7886 20.3924 16.891 20.1287 16.891L20.1288 16.891ZM17.6124 7.22087C16.3349 7.22087 15.3167 7.94246 14.8885 9.15108C14.8611 9.22783 14.8326 9.30458 14.7993 9.37936C14.7027 9.596 14.7027 9.596 14.6755 9.62715L14.6719 9.62404C14.5371 9.87839 14.1366 10.5719 12.9472 12.6313C12.8983 12.7158 12.8853 12.8139 12.9103 12.9077C12.9355 13.0015 12.996 13.0805 13.0798 13.1289C13.3399 13.2783 13.6961 13.1819 13.8444 12.9236L14.838 11.2033C14.8974 11.1008 15.0174 11.0504 15.1325 11.0816C15.247 11.1123 15.3265 11.2161 15.3265 11.3345V16.7426C15.3265 16.9978 15.5191 17.218 15.7557 17.2336C15.8922 17.2408 16.0194 17.195 16.115 17.0996C16.202 17.0127 16.2498 16.8969 16.2498 16.7731V13.2361C16.2498 13.0915 16.3671 12.9742 16.5117 12.9742C16.6564 12.9742 16.7736 13.0913 16.7736 13.2361L16.7735 17.577C16.7735 17.8316 16.9806 18.0387 17.2351 18.0387C17.3588 18.0387 17.4749 17.9908 17.5619 17.9039C17.6489 17.8168 17.6967 17.7007 17.6967 17.577V13.2361C17.6967 13.0915 17.8138 12.9742 17.9586 12.9742C18.1033 12.9742 18.2205 13.0913 18.2205 13.2361L18.2204 16.7324V16.7731C18.2204 17.0274 18.4275 17.2345 18.6822 17.2345C18.8057 17.2345 18.9214 17.1865 19.009 17.0992C19.0959 17.0125 19.1438 16.8967 19.1438 16.7729V13.2359C19.1438 13.0913 19.2609 12.974 19.4057 12.974C19.5504 12.974 19.6676 13.0911 19.6676 13.2359L19.6673 15.9057C19.6673 16.1604 19.8744 16.3675 20.1287 16.3675C20.2526 16.3675 20.3683 16.3195 20.4553 16.2327C20.5425 16.1455 20.5902 16.0294 20.5902 15.9057L20.5904 10.4942C20.5904 8.6895 19.2545 7.22093 17.6124 7.22093L17.6124 7.22087Z" fill="#103E13"/>
<path id="Vector_2" d="M9.83908 20.6522L13.6394 18.3724C14.0976 18.0972 14.6872 18.2141 14.981 18.6387C15.0883 18.7933 15.1431 18.9736 15.1516 19.1571C15.2933 19.0831 15.4474 19.0429 15.6044 19.0429C15.6847 19.0429 15.7654 19.0529 15.8451 19.0728C16.1004 19.1366 16.3156 19.2961 16.4509 19.5218C16.5864 19.7478 16.6259 20.0126 16.5621 20.2676C16.5032 20.5036 16.3597 20.7022 16.1602 20.8385C16.2997 20.9208 16.4201 21.0332 16.5057 21.1762C16.6411 21.4021 16.6807 21.6669 16.617 21.9222C16.5532 22.1772 16.3937 22.3923 16.1677 22.528L16.1664 22.5288C16.3035 22.611 16.4217 22.7222 16.5063 22.863C16.642 23.089 16.6815 23.3538 16.6177 23.6092C16.5537 23.8643 16.3942 24.0795 16.1685 24.215L11.5283 26.9988C10.6622 27.5181 9.66102 27.6974 8.70953 27.5031C7.74953 27.3069 6.95447 26.7551 6.47105 25.9492C5.70601 24.6742 5.82066 23.1677 6.76968 22.018C6.81314 21.9655 6.85594 21.912 6.89481 21.8566C6.93597 21.7981 6.98402 21.7292 7.00042 21.7056C7.09865 21.5301 8.70153 18.6422 8.70136 18.6425C8.86323 18.3504 9.16661 18.1851 9.4795 18.1853C9.62546 18.1853 9.77354 18.2212 9.91015 18.297C10.0751 18.3891 10.2137 18.5234 10.3106 18.6853C10.5099 19.0174 10.5169 19.433 10.3293 19.7693L9.83908 20.6522ZM9.86187 18.9545C9.81104 18.8697 9.74117 18.8022 9.65573 18.7543C9.47911 18.6565 9.25674 18.7202 9.1595 18.8961C8.01255 20.9625 7.62157 21.6666 7.47069 21.9172L7.47413 21.918C7.46151 21.96 7.46151 21.96 7.32343 22.1573C7.27652 22.224 7.22552 22.2882 7.17354 22.3513C6.35749 23.34 6.26274 24.5842 6.91984 25.6798C7.32687 26.3584 7.99958 26.8237 8.81411 26.99C9.63751 27.1574 10.5054 27.0016 11.2586 26.5497L15.8993 23.7658C16.0052 23.7023 16.08 23.6014 16.1099 23.4819C16.1397 23.3625 16.1212 23.2384 16.0576 23.1324C15.9267 22.9143 15.6425 22.8426 15.4244 22.974L13.1351 24.3475C13.0111 24.4219 12.85 24.3819 12.7757 24.2577C12.7013 24.1338 12.7415 23.9729 12.8654 23.8984L15.1549 22.525L15.8985 22.0789C16.0044 22.0153 16.0794 21.9145 16.1092 21.7952C16.1391 21.6757 16.1205 21.5514 16.0569 21.4456C15.9259 21.2273 15.6417 21.1563 15.4237 21.2872L12.3907 23.1067C12.2664 23.1813 12.1058 23.141 12.0314 23.017C11.9569 22.893 11.9973 22.7321 12.1211 22.6577L15.8436 20.4246C15.9495 20.361 16.0243 20.2603 16.0541 20.1407C16.084 20.0213 16.0654 19.8972 16.002 19.7913C15.9385 19.6855 15.8376 19.6107 15.7181 19.5809C15.5979 19.551 15.4742 19.5696 15.3686 19.6329L14.6795 20.0463C14.6794 20.0463 14.6794 20.0464 14.6792 20.0464H14.679L11.6462 21.866C11.5219 21.9407 11.3612 21.9004 11.2869 21.7762C11.2124 21.6523 11.2528 21.4914 11.3766 21.4169L14.4096 19.5974C14.5155 19.5338 14.5905 19.433 14.6203 19.3137C14.6531 19.1829 14.6282 19.049 14.5505 18.9369C14.4157 18.7419 14.1274 18.6901 13.9088 18.8214L9.27144 21.6034C9.16993 21.6641 9.03988 21.6493 8.95477 21.5672C8.8695 21.4848 8.85031 21.3554 8.9077 21.252L9.87199 19.5146C9.96875 19.341 9.96497 19.1265 9.86182 18.9546L9.86187 18.9545Z" fill="#103E13"/>
<path id="Vector_3" d="M27.999 25.9491C27.5157 26.7551 26.7209 27.3068 25.7607 27.5029C24.809 27.697 23.8082 27.518 22.942 26.9987L18.3013 24.2147C18.0755 24.0793 17.9157 23.8641 17.8518 23.6086C17.7883 23.3536 17.828 23.0887 17.9633 22.8631C18.0477 22.7221 18.1661 22.6109 18.3034 22.5287L18.3021 22.5279C18.0763 22.3924 17.9166 22.1773 17.8529 21.9221C17.789 21.6669 17.8287 21.4019 17.9641 21.1759C18.0514 21.0308 18.1709 20.9173 18.3074 20.8368C18.1092 20.7005 17.9666 20.5026 17.9079 20.2677C17.8439 20.0124 17.8836 19.7475 18.0191 19.5219C18.1544 19.2961 18.3697 19.1365 18.6249 19.0727C18.7046 19.0527 18.7854 19.0429 18.8654 19.0429C19.0225 19.043 19.1767 19.0829 19.3184 19.157C19.3271 18.9735 19.3817 18.7933 19.4889 18.6386C19.783 18.2144 20.372 18.097 20.8309 18.3723L24.6311 20.6518L24.1413 19.7695C23.9533 19.4327 23.9602 19.0171 24.1595 18.6848C24.2565 18.5231 24.3953 18.3888 24.5611 18.2959C24.6974 18.2204 24.8449 18.1847 24.9906 18.1847C25.3033 18.1848 25.607 18.3498 25.7687 18.6419C26.3322 19.6572 27.3955 21.572 27.4703 21.7056C27.4862 21.7288 27.5342 21.7976 27.5754 21.8562C27.6146 21.9118 27.6569 21.9649 27.7007 22.0177C28.6496 23.1679 28.764 24.6742 27.999 25.9491L27.999 25.9491ZM27.2966 22.3515C27.2445 22.2883 27.1933 22.2239 27.1468 22.1574C27.0051 21.9564 27.0015 21.9511 26.9908 21.8985C26.8252 21.6245 26.4211 20.897 25.3104 18.8959C25.213 18.7203 24.9916 18.6562 24.8153 18.7536C24.7285 18.8021 24.6588 18.8699 24.608 18.9547C24.505 19.1264 24.5011 19.3409 24.5983 19.515L25.5623 21.2519C25.6198 21.3555 25.6007 21.4847 25.5155 21.5671C25.4306 21.6496 25.3007 21.664 25.1987 21.6033L20.5614 18.8213C20.3428 18.6903 20.0546 18.7416 19.9195 18.9368C19.8418 19.0489 19.817 19.1828 19.8495 19.3135C19.8793 19.4329 19.9543 19.5335 20.0604 19.5972C20.0607 19.5973 20.0609 19.5977 20.0612 19.5978L23.0933 21.4168C23.2172 21.4913 23.2574 21.652 23.183 21.7761C23.1085 21.9 22.948 21.9405 22.8237 21.8658L19.1012 19.6328C18.9956 19.5695 18.8713 19.5508 18.7519 19.5808C18.6322 19.6106 18.5315 19.6854 18.468 19.7915C18.4044 19.8973 18.386 20.0214 18.4155 20.1408C18.4454 20.2602 18.5203 20.3611 18.6263 20.4247L19.3506 20.8591L22.3486 22.6578C22.4725 22.7323 22.5127 22.893 22.4383 23.0171C22.3638 23.1409 22.2033 23.1813 22.079 23.1068L19.0463 21.2873C18.8282 21.1561 18.5441 21.2273 18.4129 21.4457C18.3493 21.5517 18.3309 21.6758 18.3604 21.7952C18.3903 21.9146 18.4652 22.0153 18.5713 22.0791L19.3149 22.5251L21.604 23.8986C21.728 23.973 21.7682 24.1337 21.6937 24.2579C21.6193 24.3817 21.4587 24.4224 21.3344 24.3476L19.0453 22.9741C18.9397 22.9108 18.8159 22.8921 18.6958 22.9221C18.5764 22.952 18.4754 23.0268 18.4119 23.1325C18.3485 23.2385 18.3299 23.3628 18.3595 23.482C18.3893 23.6014 18.4643 23.7021 18.5704 23.7659L23.2111 26.5498C23.9641 27.0016 24.8326 27.158 25.6555 26.9901C26.4699 26.8238 27.1426 26.3586 27.5496 25.68C28.2074 24.5842 28.1128 23.3398 27.2969 22.3514L27.2966 22.3515Z" fill="#103E13"/>
</g>
</g>
</svg>
