<svg width="35" height="34" viewBox="0 0 35 34" fill="none" xmlns="http://www.w3.org/2000/svg">
<g id="Icon" clip-path="url(#clip0_1_2147)">
<path id="Vector" d="M33.1461 27.0625L33.1461 27.0626C33.2774 26.9716 33.3892 26.8554 33.4752 26.7208L33.7685 26.9081L33.4752 26.7208C33.5611 26.5862 33.6195 26.4358 33.6468 26.2784C33.6741 26.1211 33.6699 25.9599 33.6344 25.8042L33.9737 25.7267L33.6344 25.8042C33.5988 25.6485 33.5327 25.5014 33.4398 25.3714L33.4383 25.3693C32.1312 23.5113 30.3502 22.0374 28.2806 21.1009L27.7759 20.8725L28.2007 20.5169C29.4605 19.4624 30.3647 18.0453 30.7902 16.4585C31.2157 14.8717 31.1419 13.1923 30.5787 11.6489C30.0155 10.1056 28.9903 8.77337 27.6428 7.83358C26.2953 6.89379 24.6908 6.39213 23.048 6.3969L23.0464 6.3969C22.3153 6.39568 21.5876 6.49664 20.8844 6.69683L20.8781 6.69861L20.8781 6.69855C20.7219 6.73988 20.5755 6.81187 20.4474 6.91033C20.3193 7.00878 20.2121 7.13174 20.132 7.27204C20.0519 7.41233 20.0004 7.56717 19.9807 7.72752C19.961 7.88788 19.9734 8.05056 20.0172 8.20608C20.0609 8.36161 20.1352 8.50687 20.2356 8.63342L19.963 8.84979L20.2356 8.63342C20.3361 8.75997 20.4607 8.86527 20.6022 8.9432L20.4344 9.24807L20.6022 8.9432C20.7438 9.02112 20.8994 9.07012 21.06 9.08733C21.2207 9.10453 21.3831 9.08961 21.5379 9.04343L21.5419 9.04224L21.542 9.04226C22.0316 8.90257 22.5384 8.83218 23.0476 8.83314M33.1461 27.0625L23.047 9.18118M33.1461 27.0625L33.1421 27.0654C32.9389 27.2107 32.6953 27.2884 32.4455 27.2877C32.2502 27.2865 32.0579 27.2388 31.8847 27.1487C31.7115 27.0585 31.5622 26.9285 31.4492 26.7693M33.1461 27.0625L31.1649 26.9701M23.0476 8.83314L23.047 9.18118M23.0476 8.83314C23.0474 8.83314 23.0472 8.83314 23.047 8.83314V9.18118M23.0476 8.83314C24.5243 8.83332 25.9404 9.41998 26.9845 10.4641C28.0288 11.5084 28.6155 12.9248 28.6155 14.4017C28.6155 15.8786 28.0288 17.295 26.9845 18.3393C25.9402 19.3836 24.5238 19.9703 23.047 19.9703C22.7239 19.9703 22.4141 20.0986 22.1856 20.327C21.9572 20.5555 21.8288 20.8653 21.8288 21.1884C21.8288 21.5114 21.9572 21.8213 22.1856 22.0497C22.4141 22.2782 22.7239 22.4065 23.047 22.4065H23.0474C24.6948 22.4083 26.3177 22.8055 27.7797 23.5647C29.2417 24.3239 30.5001 25.4229 31.4492 26.7693M23.047 9.18118C24.4315 9.18118 25.7594 9.73119 26.7384 10.7102C27.7175 11.6893 28.2675 13.0171 28.2675 14.4017C28.2675 15.7863 27.7175 17.1141 26.7384 18.0932C25.7594 19.0722 24.4315 19.6222 23.047 19.6222C22.6316 19.6222 22.2332 19.7872 21.9395 20.0809C21.6458 20.3746 21.4808 20.773 21.4808 21.1884C21.4808 21.6037 21.6458 22.0021 21.9395 22.2958C22.2332 22.5895 22.6316 22.7545 23.047 22.7545C24.6387 22.7563 26.2067 23.1401 27.6194 23.8736C29.032 24.6072 30.2479 25.6691 31.1649 26.9701M31.4492 26.7693C31.449 26.7691 31.4489 26.7689 31.4488 26.7688L31.1649 26.9701M31.4492 26.7693C31.4492 26.7694 31.4493 26.7695 31.4494 26.7696L31.1649 26.9701M17.5632 20.5175L17.1405 20.8731L17.6438 21.1009C19.7134 22.0374 21.4944 23.5113 22.8015 25.3693L22.8065 25.3764L22.8118 25.3832C22.9133 25.5133 22.9874 25.6626 23.0294 25.8222C23.0715 25.9818 23.0807 26.1482 23.0565 26.3115C23.0323 26.4747 22.9751 26.6313 22.8886 26.7718C22.802 26.9123 22.6878 27.0337 22.5528 27.1287C22.4179 27.2237 22.2651 27.2903 22.1036 27.3245C21.9422 27.3586 21.7755 27.3596 21.6136 27.3274C21.4518 27.2951 21.2982 27.2303 21.1621 27.1369C21.0261 27.0435 20.9104 26.9235 20.8222 26.784L20.8177 26.777L20.8129 26.7701C19.8657 25.4211 18.6077 24.3199 17.1451 23.5598C15.6826 22.7996 14.0585 22.4027 12.4102 22.4027C10.7618 22.4027 9.13774 22.7996 7.67517 23.5598C6.21261 24.3199 4.95457 25.4211 4.0074 26.7701L4.00663 26.7712C3.89529 26.9311 3.74683 27.0616 3.57399 27.1516C3.40114 27.2415 3.20907 27.2882 3.01422 27.2877L3.01209 27.2877C2.76219 27.2885 2.51836 27.2108 2.31506 27.0654L2.31339 27.0643C2.04987 26.8782 1.8709 26.5953 1.81571 26.2775C1.76054 25.9598 1.83359 25.6332 2.01884 25.3693C3.32594 23.5113 5.10689 22.0374 7.17651 21.1009L7.67982 20.8731L7.25707 20.5175C6.00064 19.4605 5.09962 18.0427 4.67616 16.4564C4.25271 14.8701 4.3273 13.1919 4.88983 11.6494C5.45235 10.1069 6.47561 8.77463 7.82085 7.83331C9.1661 6.89198 10.7683 6.3871 12.4102 6.3871C14.052 6.3871 15.6542 6.89198 16.9995 7.83331C18.3447 8.77463 19.368 10.1069 19.9305 11.6494C20.493 13.1919 20.5676 14.8701 20.1442 16.4564C19.7207 18.0427 18.8197 19.4605 17.5632 20.5175ZM7.78007 11.308C7.16819 12.2237 6.8416 13.3003 6.8416 14.4017C6.8416 15.8786 7.42829 17.295 8.47259 18.3393C9.5169 19.3836 10.9333 19.9703 12.4102 19.9703C13.5115 19.9703 14.5881 19.6437 15.5039 19.0318C16.4196 18.4199 17.1334 17.5502 17.5548 16.5327C17.9763 15.5152 18.0866 14.3955 17.8717 13.3153C17.6569 12.2351 17.1265 11.2429 16.3477 10.4641C15.5689 9.68536 14.5767 9.155 13.4965 8.94014C12.4163 8.72528 11.2967 8.83555 10.2792 9.25702C9.26164 9.67849 8.39195 10.3922 7.78007 11.308Z" fill="#4CAF4F" stroke="#4CAF4F" stroke-width="0.696069"/>
</g>
<defs>
<clipPath id="clip0_1_2147">
<rect width="33.4113" height="33.4113" fill="white" transform="translate(0.924805 0.306274)"/>
</clipPath>
</defs>
</svg>
