<svg width="34" height="34" viewBox="0 0 34 34" fill="none" xmlns="http://www.w3.org/2000/svg">
<g id="Icon">
<g id="Group 1">
<path id="Vector" d="M19.2834 13.6656C19.0662 13.6656 18.8896 13.4893 18.8896 13.2719V12.6027C18.8896 12.3855 19.0659 12.209 19.2834 12.209C19.5006 12.209 19.6771 12.3853 19.6771 12.6027V13.2719C19.6771 13.4893 19.5006 13.6656 19.2834 13.6656Z" fill="#103E13"/>
<path id="Vector_2" d="M17.6281 13.6656C17.4109 13.6656 17.2344 13.4893 17.2344 13.2719V12.6027C17.2344 12.3855 17.4107 12.209 17.6281 12.209C17.8453 12.209 18.0219 12.3853 18.0219 12.6027V13.2719C18.0216 13.4893 17.8456 13.6656 17.6281 13.6656Z" fill="#103E13"/>
<path id="Vector_3" d="M15.9729 13.6656C15.7557 13.6656 15.5791 13.4893 15.5791 13.2719V12.6027C15.5791 12.3855 15.7554 12.209 15.9729 12.209C16.19 12.209 16.3666 12.3853 16.3666 12.6027V13.2719C16.3666 13.4893 16.1903 13.6656 15.9729 13.6656Z" fill="#103E13"/>
<path id="Vector_4" d="M19.2834 16.402C19.0662 16.402 18.8896 16.2258 18.8896 16.0083V15.3394C18.8896 15.1222 19.0659 14.9457 19.2834 14.9457C19.5006 14.9457 19.6771 15.122 19.6771 15.3394V16.0083C19.6771 16.2258 19.5006 16.402 19.2834 16.402Z" fill="#103E13"/>
<path id="Vector_5" d="M17.6281 16.402C17.4109 16.402 17.2344 16.2258 17.2344 16.0083V15.3394C17.2344 15.1222 17.4107 14.9457 17.6281 14.9457C17.8453 14.9457 18.0219 15.122 18.0219 15.3394V16.0083C18.0216 16.2258 17.8456 16.402 17.6281 16.402Z" fill="#103E13"/>
<path id="Vector_6" d="M15.9729 16.402C15.7557 16.402 15.5791 16.2258 15.5791 16.0083V15.3394C15.5791 15.1222 15.7554 14.9457 15.9729 14.9457C16.19 14.9457 16.3666 15.122 16.3666 15.3394V16.0083C16.3666 16.2258 16.1903 16.402 15.9729 16.402Z" fill="#103E13"/>
<path id="Vector_7" d="M19.2834 19.1384C19.0662 19.1384 18.8896 18.9621 18.8896 18.7447V18.0755C18.8896 17.8583 19.0659 17.6818 19.2834 17.6818C19.5006 17.6818 19.6771 17.858 19.6771 18.0755V18.7447C19.6771 18.9621 19.5006 19.1384 19.2834 19.1384Z" fill="#103E13"/>
<path id="Vector_8" d="M17.6281 19.1384C17.4109 19.1384 17.2344 18.9621 17.2344 18.7447V18.0755C17.2344 17.8583 17.4107 17.6818 17.6281 17.6818C17.8453 17.6818 18.0219 17.858 18.0219 18.0755V18.7447C18.0216 18.9621 17.8456 19.1384 17.6281 19.1384Z" fill="#103E13"/>
<path id="Vector_9" d="M15.9729 19.1384C15.7557 19.1384 15.5791 18.9621 15.5791 18.7447V18.0755C15.5791 17.8583 15.7554 17.6818 15.9729 17.6818C16.19 17.6818 16.3666 17.858 16.3666 18.0755V18.7447C16.3666 18.9621 16.1903 19.1384 15.9729 19.1384Z" fill="#103E13"/>
<path id="Vector_10" d="M19.2834 21.8742C19.0662 21.8742 18.8896 21.698 18.8896 21.4805V20.8114C18.8896 20.5942 19.0659 20.4176 19.2834 20.4176C19.5006 20.4176 19.6771 20.5939 19.6771 20.8114V21.4805C19.6771 21.698 19.5006 21.8742 19.2834 21.8742Z" fill="#103E13"/>
<path id="Vector_11" d="M17.6281 21.8742C17.4109 21.8742 17.2344 21.698 17.2344 21.4805V20.8114C17.2344 20.5942 17.4107 20.4176 17.6281 20.4176C17.8453 20.4176 18.0219 20.5939 18.0219 20.8114V21.4805C18.0216 21.698 17.8456 21.8742 17.6281 21.8742Z" fill="#103E13"/>
<path id="Vector_12" d="M15.9729 21.8742C15.7557 21.8742 15.5791 21.698 15.5791 21.4805V20.8114C15.5791 20.5942 15.7554 20.4176 15.9729 20.4176C16.19 20.4176 16.3666 20.5939 16.3666 20.8114V21.4805C16.3666 21.698 16.1903 21.8742 15.9729 21.8742Z" fill="#103E13"/>
<path id="Vector_13" d="M19.2834 24.6107C19.0662 24.6107 18.8896 24.4344 18.8896 24.2169V23.548C18.8896 23.3309 19.0659 23.1543 19.2834 23.1543C19.5006 23.1543 19.6771 23.3306 19.6771 23.548V24.2169C19.6771 24.4341 19.5006 24.6107 19.2834 24.6107Z" fill="#103E13"/>
<path id="Vector_14" d="M17.6281 24.6107C17.4109 24.6107 17.2344 24.4344 17.2344 24.2169V23.548C17.2344 23.3309 17.4107 23.1543 17.6281 23.1543C17.8453 23.1543 18.0219 23.3306 18.0219 23.548V24.2169C18.0216 24.4341 17.8456 24.6107 17.6281 24.6107Z" fill="#103E13"/>
<path id="Vector_15" d="M15.9729 24.6107C15.7557 24.6107 15.5791 24.4344 15.5791 24.2169L15.5794 23.548C15.5794 23.3309 15.7557 23.1543 15.9731 23.1543C16.1903 23.1543 16.3669 23.3306 16.3669 23.548V24.2169C16.3666 24.4341 16.1903 24.6107 15.9729 24.6107Z" fill="#103E13"/>
<path id="Vector_16" d="M4.72445 27.3339C4.72445 27.551 4.90073 27.7276 5.1182 27.7276H29.0962C29.3134 27.7276 29.49 27.5513 29.49 27.3339C29.49 27.1167 29.3137 26.9401 29.0962 26.9401H28.3684V15.635C28.3684 15.4178 28.1921 15.2413 27.9746 15.2413L21.5459 15.2416V7.0912C21.5459 6.95336 21.474 6.82596 21.3564 6.75456C21.2392 6.6829 21.0926 6.67851 20.9707 6.74193L13.6617 10.5473C13.5313 10.6152 13.45 10.7497 13.45 10.8966V18.0158H6.3765C6.15932 18.0158 5.98276 18.1921 5.98276 18.4095V26.9402H5.11732C4.90013 26.9399 4.72412 27.1162 4.72412 27.3336L4.72445 27.3339ZM21.546 21.205H27.5813V26.9404L21.546 26.9402V21.205ZM21.546 18.4688H27.5813V20.4178L21.546 20.4175V18.4688ZM21.546 16.0286H27.5813V17.6819H21.546V16.0286ZM14.2371 11.1357L20.7583 7.74023V26.9398H14.2371V11.1357ZM8.71669 23.7953C8.71669 22.9781 9.36414 22.3131 10.1601 22.3131C10.9561 22.3131 11.6039 22.9779 11.6039 23.7953V26.9403H8.71669V23.7953ZM6.77023 18.8031H13.4499V26.9402H12.3913V23.7951C12.3913 22.5439 11.3908 21.5258 10.1601 21.5258C8.93003 21.5258 7.92949 22.5436 7.92949 23.7951V26.9402H6.77023V18.8031Z" fill="#103E13"/>
</g>
</g>
</svg>
