<svg width="34" height="34" viewBox="0 0 34 34" fill="none" xmlns="http://www.w3.org/2000/svg">
<g id="Icon">
<g id="Group 2">
<g id="Vector">
<mask id="path-1-inside-1_1_2153" fill="white">
<path d="M20.0116 16.7646C19.844 16.7646 19.6883 16.7185 19.5501 16.6444V16.6464C19.5501 16.9101 19.4476 17.1577 19.2616 17.3432C19.0757 17.5292 18.8282 17.6317 18.5648 17.6317C18.3948 17.6317 18.2372 17.5844 18.0974 17.5083C18.0833 17.7496 17.9869 17.9751 17.8149 18.1473C17.6289 18.3332 17.3815 18.4357 17.1179 18.4357C16.5942 18.4357 16.169 18.0241 16.1384 17.5082C15.9763 17.5957 15.7932 17.6417 15.6042 17.6295C15.0891 17.5957 14.6857 17.1507 14.6857 16.616V12.1844L14.1811 13.0586C13.9889 13.393 13.6291 13.6006 13.2417 13.6006C13.053 13.6006 12.8665 13.5511 12.7014 13.4565C12.4957 13.3373 12.3486 13.1459 12.2875 12.9169C12.226 12.6878 12.2578 12.4482 12.3767 12.2429C12.3768 12.2429 14.0277 9.38402 14.1285 9.2084C14.1404 9.182 14.1745 9.10542 14.2036 9.04015C14.2313 8.97783 14.2551 8.91388 14.2779 8.84959C14.7757 7.44403 16.0085 6.57093 17.4952 6.57093C19.4259 6.57093 20.9966 8.27414 20.9966 10.3677L20.9968 15.7792C20.9968 16.0426 20.8945 16.29 20.7087 16.4762C20.5227 16.6621 20.2752 16.7646 20.0115 16.7646L20.0116 16.7646ZM17.4953 7.09447C16.2177 7.09447 15.1995 7.81606 14.7713 9.02468C14.7439 9.10143 14.7154 9.17817 14.6821 9.25296C14.5855 9.46959 14.5855 9.46959 14.5583 9.50075L14.5547 9.49763C14.4199 9.75198 14.0194 10.4455 12.83 12.5049C12.7811 12.5894 12.7682 12.6875 12.7931 12.7813C12.8183 12.8751 12.8789 12.9541 12.9627 13.0025C13.2228 13.1519 13.579 13.0555 13.7272 12.7972L14.7208 11.0769C14.7802 10.9744 14.9002 10.924 15.0154 10.9552C15.1298 10.9859 15.2094 11.0897 15.2094 11.2081V16.6162C15.2094 16.8714 15.4019 17.0916 15.6385 17.1072C15.775 17.1144 15.9022 17.0686 15.9978 16.9732C16.0848 16.8863 16.1327 16.7705 16.1327 16.6467V13.1097C16.1327 12.9651 16.2499 12.8478 16.3945 12.8478C16.5392 12.8478 16.6564 12.9649 16.6564 13.1097L16.6563 17.4506C16.6563 17.7052 16.8634 17.9123 17.1179 17.9123C17.2416 17.9123 17.3577 17.8644 17.4448 17.7775C17.5317 17.6904 17.5796 17.5743 17.5796 17.4506V13.1097C17.5796 12.9651 17.6966 12.8478 17.8415 12.8478C17.9861 12.8478 18.1033 12.9649 18.1033 13.1097L18.1032 16.606V16.6467C18.1032 16.901 18.3103 17.1081 18.565 17.1081C18.6885 17.1081 18.8043 17.0601 18.8918 16.9728C18.9787 16.8861 19.0266 16.7703 19.0266 16.6465V13.1095C19.0266 12.9649 19.1437 12.8476 19.2885 12.8476C19.4332 12.8476 19.5504 12.9647 19.5504 13.1095L19.5501 15.7793C19.5501 16.034 19.7572 16.2411 20.0116 16.2411C20.1354 16.2411 20.2512 16.1931 20.3381 16.1063C20.4253 16.0191 20.473 15.903 20.473 15.7793L20.4732 10.3678C20.4732 8.5631 19.1373 7.09452 17.4952 7.09452L17.4953 7.09447Z"/>
</mask>
<path d="M20.0116 16.7646C19.844 16.7646 19.6883 16.7185 19.5501 16.6444V16.6464C19.5501 16.9101 19.4476 17.1577 19.2616 17.3432C19.0757 17.5292 18.8282 17.6317 18.5648 17.6317C18.3948 17.6317 18.2372 17.5844 18.0974 17.5083C18.0833 17.7496 17.9869 17.9751 17.8149 18.1473C17.6289 18.3332 17.3815 18.4357 17.1179 18.4357C16.5942 18.4357 16.169 18.0241 16.1384 17.5082C15.9763 17.5957 15.7932 17.6417 15.6042 17.6295C15.0891 17.5957 14.6857 17.1507 14.6857 16.616V12.1844L14.1811 13.0586C13.9889 13.393 13.6291 13.6006 13.2417 13.6006C13.053 13.6006 12.8665 13.5511 12.7014 13.4565C12.4957 13.3373 12.3486 13.1459 12.2875 12.9169C12.226 12.6878 12.2578 12.4482 12.3767 12.2429C12.3768 12.2429 14.0277 9.38402 14.1285 9.2084C14.1404 9.182 14.1745 9.10542 14.2036 9.04015C14.2313 8.97783 14.2551 8.91388 14.2779 8.84959C14.7757 7.44403 16.0085 6.57093 17.4952 6.57093C19.4259 6.57093 20.9966 8.27414 20.9966 10.3677L20.9968 15.7792C20.9968 16.0426 20.8945 16.29 20.7087 16.4762C20.5227 16.6621 20.2752 16.7646 20.0115 16.7646L20.0116 16.7646ZM17.4953 7.09447C16.2177 7.09447 15.1995 7.81606 14.7713 9.02468C14.7439 9.10143 14.7154 9.17817 14.6821 9.25296C14.5855 9.46959 14.5855 9.46959 14.5583 9.50075L14.5547 9.49763C14.4199 9.75198 14.0194 10.4455 12.83 12.5049C12.7811 12.5894 12.7682 12.6875 12.7931 12.7813C12.8183 12.8751 12.8789 12.9541 12.9627 13.0025C13.2228 13.1519 13.579 13.0555 13.7272 12.7972L14.7208 11.0769C14.7802 10.9744 14.9002 10.924 15.0154 10.9552C15.1298 10.9859 15.2094 11.0897 15.2094 11.2081V16.6162C15.2094 16.8714 15.4019 17.0916 15.6385 17.1072C15.775 17.1144 15.9022 17.0686 15.9978 16.9732C16.0848 16.8863 16.1327 16.7705 16.1327 16.6467V13.1097C16.1327 12.9651 16.2499 12.8478 16.3945 12.8478C16.5392 12.8478 16.6564 12.9649 16.6564 13.1097L16.6563 17.4506C16.6563 17.7052 16.8634 17.9123 17.1179 17.9123C17.2416 17.9123 17.3577 17.8644 17.4448 17.7775C17.5317 17.6904 17.5796 17.5743 17.5796 17.4506V13.1097C17.5796 12.9651 17.6966 12.8478 17.8415 12.8478C17.9861 12.8478 18.1033 12.9649 18.1033 13.1097L18.1032 16.606V16.6467C18.1032 16.901 18.3103 17.1081 18.565 17.1081C18.6885 17.1081 18.8043 17.0601 18.8918 16.9728C18.9787 16.8861 19.0266 16.7703 19.0266 16.6465V13.1095C19.0266 12.9649 19.1437 12.8476 19.2885 12.8476C19.4332 12.8476 19.5504 12.9647 19.5504 13.1095L19.5501 15.7793C19.5501 16.034 19.7572 16.2411 20.0116 16.2411C20.1354 16.2411 20.2512 16.1931 20.3381 16.1063C20.4253 16.0191 20.473 15.903 20.473 15.7793L20.4732 10.3678C20.4732 8.5631 19.1373 7.09452 17.4952 7.09452L17.4953 7.09447Z" fill="#4CAF4F"/>
<path d="M20.0116 16.7646V15.8365H23.2906L20.498 17.555L20.0116 16.7646ZM19.5501 16.6444H18.622V15.0937L19.9887 15.8265L19.5501 16.6444ZM19.2616 17.3432L18.6054 16.6869L18.6063 16.6861L19.2616 17.3432ZM18.0974 17.5083L17.1709 17.4542L17.2563 15.9935L18.5413 16.6933L18.0974 17.5083ZM17.8149 18.1473L18.4715 18.8032L18.4711 18.8035L17.8149 18.1473ZM16.1384 17.5082L15.6971 16.6917L16.9785 15.9992L17.0648 17.4531L16.1384 17.5082ZM15.6042 17.6295L15.5447 18.5557L15.5435 18.5556L15.6042 17.6295ZM14.6857 12.1844L13.8819 11.7204L15.6138 8.72004V12.1844H14.6857ZM14.1811 13.0586L13.3764 12.5961L13.3773 12.5947L14.1811 13.0586ZM12.7014 13.4565L12.24 14.2618L12.2359 14.2594L12.7014 13.4565ZM12.2875 12.9169L13.1838 12.6763L13.1841 12.6774L12.2875 12.9169ZM12.3767 12.2429L11.5735 11.7779L11.8416 11.3148H12.3767V12.2429ZM14.1285 9.2084L14.9737 9.59166L14.9555 9.63185L14.9335 9.67013L14.1285 9.2084ZM14.2036 9.04015L13.3556 8.66302L13.3556 8.66301L14.2036 9.04015ZM14.2779 8.84959L15.1527 9.15946L15.1526 9.15972L14.2779 8.84959ZM20.9966 10.3677L20.0685 10.3677V10.3677H20.9966ZM20.9968 15.7792L21.9249 15.7792V15.7792H20.9968ZM20.7087 16.4762L21.3655 17.1318L21.3649 17.1324L20.7087 16.4762ZM20.0115 16.7646V17.6927H16.7326L19.5251 15.9742L20.0115 16.7646ZM17.4953 7.09447V6.16638H18.7257L18.3876 7.34944L17.4953 7.09447ZM14.7713 9.02468L15.6461 9.3346L15.6454 9.3366L14.7713 9.02468ZM14.6821 9.25296L15.53 9.63041L15.5298 9.6309L14.6821 9.25296ZM14.5583 9.50075L15.2572 10.1114L14.6501 10.8063L13.9517 10.2031L14.5583 9.50075ZM14.5547 9.49763L13.7346 9.06303L14.28 8.03407L15.1613 8.79523L14.5547 9.49763ZM12.83 12.5049L13.6337 12.9691L13.6333 12.9698L12.83 12.5049ZM12.7931 12.7813L11.8969 13.0225L11.8961 13.0196L12.7931 12.7813ZM12.9627 13.0025L12.5004 13.8073L12.4987 13.8063L12.9627 13.0025ZM13.7272 12.7972L12.9223 12.3352L12.9235 12.333L13.7272 12.7972ZM14.7208 11.0769L13.9172 10.6127L13.9177 10.6117L14.7208 11.0769ZM15.0154 10.9552L14.7752 11.8517L14.7729 11.851L15.0154 10.9552ZM15.6385 17.1072L15.5895 18.034L15.5776 18.0333L15.6385 17.1072ZM15.9978 16.9732L16.6541 17.6295L16.6535 17.63L15.9978 16.9732ZM16.6564 13.1097H17.5845V13.1097L16.6564 13.1097ZM16.6563 17.4506H15.7282V17.4506L16.6563 17.4506ZM17.4448 17.7775L18.1016 18.4331L18.1004 18.4344L17.4448 17.7775ZM18.1033 13.1097H19.0314V13.1097L18.1033 13.1097ZM18.1032 16.606H17.1751V16.606L18.1032 16.606ZM18.8918 16.9728L19.5475 17.6297L19.5469 17.6303L18.8918 16.9728ZM19.5504 13.1095H20.4785V13.1096L19.5504 13.1095ZM19.5501 15.7793H18.622V15.7792L19.5501 15.7793ZM20.3381 16.1063L20.9943 16.7626L20.9937 16.7632L20.3381 16.1063ZM20.473 15.7793H19.5449V15.7793L20.473 15.7793ZM20.4732 10.3678H21.4013V10.3679L20.4732 10.3678ZM17.4952 7.09452V8.02262H16.2648L16.6029 6.83956L17.4952 7.09452ZM20.0116 17.6927C19.6698 17.6927 19.3647 17.5981 19.1115 17.4623L19.9887 15.8265C20.0007 15.8329 20.0083 15.8354 20.0113 15.8362C20.0139 15.8369 20.0136 15.8365 20.0116 15.8365V17.6927ZM20.4782 16.6444V16.6464H18.622V16.6444H20.4782ZM20.4782 16.6464C20.4782 17.1555 20.2784 17.6399 19.917 18.0003L18.6063 16.6861C18.6129 16.6795 18.6162 16.6738 18.6181 16.6692C18.62 16.6645 18.622 16.6574 18.622 16.6464H20.4782ZM19.9179 17.9995C19.5577 18.3596 19.0742 18.5598 18.5648 18.5598V16.7036C18.5755 16.7036 18.5825 16.7016 18.5872 16.6997C18.592 16.6977 18.5981 16.6942 18.6054 16.6869L19.9179 17.9995ZM18.5648 18.5598C18.2186 18.5598 17.9097 18.4629 17.6536 18.3234L18.5413 16.6933C18.5534 16.6999 18.561 16.7024 18.5641 16.7032C18.5667 16.7039 18.5665 16.7036 18.5648 16.7036V18.5598ZM19.0239 17.5625C18.9972 18.0193 18.8119 18.4624 18.4715 18.8032L17.1583 17.4914C17.1617 17.4879 17.1637 17.4849 17.1654 17.481C17.1672 17.4768 17.1701 17.4683 17.1709 17.4542L19.0239 17.5625ZM18.4711 18.8035C18.1109 19.1638 17.6273 19.3638 17.1179 19.3638V17.5076C17.1287 17.5076 17.1358 17.5057 17.1405 17.5037C17.1452 17.5017 17.1514 17.4983 17.1586 17.491L18.4711 18.8035ZM17.1179 19.3638C16.0933 19.3638 15.2711 18.5597 15.2119 17.5632L17.0648 17.4531C17.0658 17.4689 17.0722 17.4828 17.0836 17.4937C17.0892 17.499 17.0949 17.5024 17.0998 17.5044C17.1041 17.5062 17.1096 17.5076 17.1179 17.5076V19.3638ZM16.5796 18.3247C16.2799 18.4867 15.9244 18.5801 15.5447 18.5557L15.6637 16.7033C15.6637 16.7033 15.6657 16.7035 15.6706 16.7024C15.6759 16.7012 15.6849 16.6983 15.6971 16.6917L16.5796 18.3247ZM15.5435 18.5556C14.513 18.4881 13.7576 17.6117 13.7576 16.616H15.6138C15.6138 16.6474 15.6252 16.6716 15.6395 16.6873C15.6534 16.7027 15.6628 16.7033 15.665 16.7034L15.5435 18.5556ZM13.7576 16.616V12.1844H15.6138V16.616H13.7576ZM15.4895 12.6484L14.9849 13.5226L13.3773 12.5947L13.8819 11.7204L15.4895 12.6484ZM14.9857 13.5211C14.6271 14.1451 13.9596 14.5287 13.2417 14.5287V12.6725C13.2986 12.6725 13.3507 12.641 13.3764 12.5961L14.9857 13.5211ZM13.2417 14.5287C12.8908 14.5287 12.5453 14.4367 12.24 14.2618L13.1628 12.6512C13.1878 12.6655 13.2152 12.6725 13.2417 12.6725V14.5287ZM12.2359 14.2594C11.8192 14.0178 11.5159 13.6247 11.3908 13.1565L13.1841 12.6774C13.1833 12.6742 13.1809 12.6686 13.1765 12.6628C13.172 12.657 13.1679 12.6542 13.1669 12.6536L12.2359 14.2594ZM11.3911 13.1575C11.2655 12.6897 11.3313 12.1962 11.5735 11.7779L13.1798 12.708C13.1812 12.7057 13.1835 12.7004 13.1845 12.6929C13.1855 12.6854 13.1846 12.6794 13.1838 12.6763L11.3911 13.1575ZM12.3767 11.3148C11.9214 11.4342 11.5806 11.7657 11.5781 11.77C11.5772 11.7714 11.576 11.7736 11.5756 11.7743C11.5754 11.7747 11.575 11.7754 11.5748 11.7756C11.5747 11.7757 11.5746 11.776 11.5745 11.7761C11.5744 11.7763 11.5744 11.7762 11.5748 11.7756C11.5754 11.7745 11.5765 11.7727 11.578 11.7701C11.5811 11.7648 11.5856 11.7569 11.5917 11.7464C11.6038 11.7255 11.6215 11.6947 11.6442 11.6555C11.6895 11.577 11.7544 11.4647 11.8326 11.3293C11.9889 11.0586 12.1985 10.6958 12.4111 10.3275C12.8371 9.58959 13.2739 8.83294 13.3234 8.74668L14.9335 9.67013C14.8823 9.75948 14.4433 10.5201 14.0186 11.2556C13.8059 11.6239 13.5964 11.9868 13.44 12.2576C13.3618 12.393 13.2969 12.5054 13.2515 12.5839C13.2288 12.6232 13.211 12.6541 13.1988 12.6751C13.1928 12.6856 13.188 12.6938 13.1848 12.6994C13.1832 12.7021 13.1819 12.7044 13.181 12.706C13.1805 12.7068 13.18 12.7078 13.1794 12.7087C13.1792 12.709 13.1786 12.7101 13.1779 12.7113C13.1775 12.7121 13.1762 12.7143 13.1753 12.7157C13.1727 12.7201 12.8319 13.0517 12.3767 13.171V11.3148ZM13.2832 8.82515C13.2934 8.80261 13.3258 8.72997 13.3556 8.66302L15.0516 9.41728C15.0233 9.48087 14.9874 9.56139 14.9737 9.59166L13.2832 8.82515ZM13.3556 8.66301C13.3685 8.63401 13.3827 8.59695 13.4031 8.53946L15.1526 9.15972C15.1274 9.23081 15.0941 9.32165 15.0516 9.41729L13.3556 8.66301ZM13.403 8.53971C14.0316 6.7651 15.6138 5.64283 17.4952 5.64283V7.49902C16.4032 7.49902 15.5198 8.12296 15.1527 9.15946L13.403 8.53971ZM17.4952 5.64283C20.0078 5.64283 21.9247 7.83377 21.9247 10.3677H20.0685C20.0685 8.71451 18.844 7.49902 17.4952 7.49902V5.64283ZM21.9247 10.3677L21.9249 15.7792L20.0687 15.7792L20.0685 10.3677L21.9247 10.3677ZM21.9249 15.7792C21.9249 16.2881 21.7252 16.7715 21.3655 17.1318L20.0518 15.8205C20.0591 15.8132 20.0627 15.8069 20.0647 15.8021C20.0667 15.7972 20.0687 15.79 20.0687 15.7792H21.9249ZM21.3649 17.1324C21.0046 17.4927 20.521 17.6927 20.0115 17.6927V15.8365C20.0225 15.8365 20.0296 15.8346 20.0343 15.8326C20.039 15.8306 20.0452 15.8272 20.0524 15.8199L21.3649 17.1324ZM19.5251 15.9742L19.5252 15.9742L20.498 17.555L20.498 17.5551L19.5251 15.9742ZM17.4953 8.02256C16.6128 8.02256 15.9437 8.4946 15.6461 9.3346L13.8965 8.71476C14.4553 7.13751 15.8226 6.16638 17.4953 6.16638V8.02256ZM15.6454 9.3366C15.6161 9.4187 15.5781 9.52238 15.53 9.63041L13.8342 8.8755C13.8527 8.83397 13.8717 8.78416 13.8972 8.71276L15.6454 9.3366ZM15.5298 9.6309C15.4873 9.72622 15.4517 9.80672 15.4244 9.86125C15.4075 9.89509 15.3801 9.94725 15.3404 10.005C15.3002 10.0636 15.2604 10.1077 15.2572 10.1114L13.8594 8.89009C13.8616 8.8876 13.8609 8.88841 13.8598 8.88969C13.8584 8.89134 13.8547 8.89554 13.85 8.90131C13.8451 8.90729 13.8389 8.915 13.832 8.92418C13.825 8.93344 13.8178 8.94329 13.8107 8.95368C13.7961 8.97484 13.7849 8.99337 13.777 9.00739C13.7695 9.02047 13.765 9.02953 13.764 9.03157C13.7629 9.03367 13.7636 9.03243 13.7667 9.02568C13.7698 9.01914 13.7741 9.00972 13.7803 8.996C13.7865 8.9824 13.7939 8.96599 13.8029 8.94569C13.812 8.92543 13.8223 8.90222 13.8345 8.87501L15.5298 9.6309ZM13.9517 10.2031L13.9481 10.2L15.1613 8.79523L15.1649 8.79835L13.9517 10.2031ZM15.3747 9.93223C15.2295 10.2063 14.8148 10.924 13.6337 12.9691L12.0263 12.0408C13.224 9.96697 13.6103 9.29766 13.7346 9.06303L15.3747 9.93223ZM13.6333 12.9698C13.7075 12.8414 13.7282 12.6866 13.69 12.5429L11.8961 13.0196C11.8081 12.6883 11.8547 12.3373 12.0267 12.0401L13.6333 12.9698ZM13.6893 12.54C13.6511 12.3981 13.5572 12.2741 13.4267 12.1987L12.4987 13.8063C12.2005 13.6341 11.9856 13.352 11.8969 13.0225L13.6893 12.54ZM13.4249 12.1977C13.3193 12.137 13.2165 12.1374 13.1456 12.1565C13.0749 12.1756 12.9843 12.2271 12.9223 12.3352L14.5321 13.2591C14.1277 13.9639 13.2033 14.211 12.5004 13.8073L13.4249 12.1977ZM12.9235 12.333L13.9172 10.6127L15.5245 11.5411L14.5309 13.2614L12.9235 12.333ZM13.9177 10.6117C14.1858 10.1489 14.733 9.91727 15.2578 10.0593L14.7729 11.851C15.0675 11.9308 15.3746 11.7999 15.5239 11.542L13.9177 10.6117ZM15.2555 10.0587C15.7762 10.1982 16.1375 10.67 16.1375 11.2081H14.2813C14.2813 11.5093 14.4834 11.7735 14.7752 11.8517L15.2555 10.0587ZM16.1375 11.2081V16.6162H14.2813V11.2081H16.1375ZM16.1375 16.6162C16.1375 16.5104 16.0983 16.4143 16.034 16.3407C15.9697 16.2673 15.8564 16.1914 15.6995 16.1811L15.5776 18.0333C14.7963 17.9818 14.2813 17.3013 14.2813 16.6162H16.1375ZM15.6876 16.1804C15.5779 16.1746 15.444 16.2147 15.3422 16.3164L16.6535 17.63C16.3605 17.9225 15.9721 18.0542 15.5895 18.034L15.6876 16.1804ZM15.3416 16.3169C15.2535 16.405 15.2046 16.5257 15.2046 16.6467H17.0607C17.0607 17.0153 16.916 17.3675 16.6541 17.6295L15.3416 16.3169ZM15.2046 16.6467V13.1097H17.0607V16.6467H15.2046ZM15.2046 13.1097C15.2046 12.4525 15.7373 11.9197 16.3945 11.9197V13.7759C16.7625 13.7759 17.0607 13.4776 17.0607 13.1097H15.2046ZM16.3945 11.9197C17.0514 11.9197 17.5845 12.4519 17.5845 13.1097H15.7284C15.7284 13.4778 16.027 13.7759 16.3945 13.7759V11.9197ZM17.5845 13.1097L17.5844 17.4507L15.7282 17.4506L15.7284 13.1097L17.5845 13.1097ZM17.5844 17.4506C17.5844 17.1926 17.376 16.9842 17.1179 16.9842V18.8404C16.3508 18.8404 15.7282 18.2177 15.7282 17.4506H17.5844ZM17.1179 16.9842C16.9971 16.9842 16.877 17.0329 16.7891 17.1206L18.1004 18.4344C17.8383 18.6959 17.486 18.8404 17.1179 18.8404V16.9842ZM16.7879 17.1218C16.7001 17.2097 16.6515 17.3299 16.6515 17.4506H18.5076C18.5076 17.8187 18.3632 18.171 18.1016 18.4331L16.7879 17.1218ZM16.6515 17.4506V13.1097H18.5076V17.4506H16.6515ZM16.6515 13.1097C16.6515 12.4529 17.1837 11.9197 17.8415 11.9197V13.7759C18.2096 13.7759 18.5076 13.4772 18.5076 13.1097H16.6515ZM17.8415 11.9197C18.4983 11.9197 19.0314 12.4519 19.0314 13.1097H17.1753C17.1753 13.4778 17.4739 13.7759 17.8415 13.7759V11.9197ZM19.0314 13.1097L19.0313 16.606L17.1751 16.606L17.1753 13.1096L19.0314 13.1097ZM19.0313 16.606V16.6467H17.1751V16.606H19.0313ZM19.0313 16.6467C19.0313 16.388 18.8224 16.18 18.565 16.18V18.0362C17.7982 18.0362 17.1751 17.414 17.1751 16.6467H19.0313ZM18.565 16.18C18.4417 16.18 18.3223 16.2302 18.2368 16.3154L19.5469 17.6303C19.2862 17.89 18.9353 18.0362 18.565 18.0362V16.18ZM18.2362 16.316C18.1474 16.4046 18.0985 16.5257 18.0985 16.6465H19.9547C19.9547 17.015 19.8101 17.3676 19.5475 17.6297L18.2362 16.316ZM18.0985 16.6465V13.1095H19.9547V16.6465H18.0985ZM18.0985 13.1095C18.0985 12.4527 18.6308 11.9195 19.2885 11.9195V13.7757C19.6567 13.7757 19.9547 13.4771 19.9547 13.1095H18.0985ZM19.2885 11.9195C19.9454 11.9195 20.4785 12.4518 20.4785 13.1095H18.6223C18.6223 13.4777 18.921 13.7757 19.2885 13.7757V11.9195ZM20.4785 13.1096L20.4782 15.7794L18.622 15.7792L18.6223 13.1094L20.4785 13.1096ZM20.4782 15.7793C20.4782 15.5219 20.2702 15.313 20.0116 15.313V17.1692C19.2442 17.1692 18.622 16.5461 18.622 15.7793H20.4782ZM20.0116 15.313C19.8898 15.313 19.7697 15.3623 19.6824 15.4494L20.9937 16.7632C20.7326 17.0238 20.3809 17.1692 20.0116 17.1692V15.313ZM19.6818 15.4501C19.5934 15.5384 19.5449 15.659 19.5449 15.7793H21.4011C21.4011 16.1469 21.2572 16.4997 20.9943 16.7626L19.6818 15.4501ZM19.5449 15.7793L19.5451 10.3678L21.4013 10.3679L21.4011 15.7793L19.5449 15.7793ZM19.5451 10.3678C19.5451 8.99109 18.5441 8.02262 17.4952 8.02262V6.16643C19.7306 6.16643 21.4013 8.13511 21.4013 10.3678H19.5451ZM16.6029 6.83956L16.6029 6.8395L18.3876 7.34944L18.3876 7.34949L16.6029 6.83956Z" fill="#4CAF4F" mask="url(#path-1-inside-1_1_2153)"/>
</g>
<path id="Vector_2" d="M11.529 21.7395C11.4047 21.8143 11.244 21.774 11.1697 21.6498C11.0952 21.5259 11.1356 21.365 11.2594 21.2905M11.529 21.7395L13.7916 18.695C14.0102 18.5637 14.2985 18.6155 14.4333 18.8105M11.529 21.7395L14.5619 19.92H14.562L14.5624 19.9199M11.529 21.7395L15.7264 20.2982C15.8323 20.2346 15.9071 20.1339 15.9369 20.0143M11.2594 21.2905L14.2924 19.471C14.3984 19.4074 14.4733 19.3065 14.5031 19.1873M11.2594 21.2905L11.2901 21.3417L11.3941 21.5151L11.3943 21.5154L11.4412 21.5935L11.4981 21.6885L11.4982 21.6884L11.4983 21.6884L11.4985 21.6882M11.2594 21.2905L11.2901 21.3417M14.5031 19.1873C14.5359 19.0565 14.511 18.9226 14.4333 18.8105M14.5031 19.1873L14.578 19.2061L14.5709 19.0522C14.5659 18.9463 14.535 18.8523 14.4825 18.7767L14.4824 18.7765L14.4333 18.8105M14.5031 19.1873L14.578 19.2061L14.5854 19.3649L14.4336 19.456H14.4333L14.3231 19.5221L14.3231 19.5221L14.3231 19.5221L11.2903 21.3416M14.4333 18.8105L14.4824 18.7765L12.243 22.929C12.3383 22.8717 12.3698 22.7478 12.312 22.6517C12.2548 22.5563 12.1305 22.525 12.0348 22.5823L15.0677 20.7629C15.1374 20.7211 15.2104 20.6895 15.285 20.6678L15.7554 20.3466L15.7554 20.3465L15.7813 20.3289C15.8917 20.2535 15.9647 20.1491 15.9947 20.0289L15.9947 20.0288L15.9369 20.0143M11.2903 21.3416C11.3857 21.2846 11.5099 21.3155 11.5675 21.4109C11.5676 21.4111 11.5678 21.4114 11.5679 21.4116C11.6251 21.5076 11.5935 21.6311 11.4985 21.6882M11.2903 21.3416C11.2902 21.3416 11.2902 21.3417 11.2901 21.3417M11.2903 21.3416L11.2901 21.3417M11.4985 21.6882L14.5311 19.869L14.5312 19.8689L14.5314 19.8688C14.5314 19.8688 14.5315 19.8687 14.5316 19.8687L14.5619 19.9191L14.562 19.9193L14.5624 19.9199M11.4985 21.6882L11.3945 21.5153L11.3943 21.5149L11.3591 21.4564L11.2901 21.3417M14.5624 19.9199V19.8494C14.6209 19.8111 14.6744 19.7666 14.7222 19.7171L15.2215 19.4565L15.2215 19.4565L15.2491 19.442C15.3294 19.4002 15.4103 19.3806 15.4872 19.3806C15.5287 19.3806 15.5716 19.3857 15.6153 19.3965C15.6153 19.3966 15.6153 19.3966 15.6154 19.3966C15.6155 19.3966 15.6157 19.3966 15.6158 19.3967L15.7135 19.0043M14.5624 19.9199L15.2514 19.5065C15.3571 19.4431 15.4807 19.4246 15.6009 19.4545C15.7205 19.4843 15.8213 19.5591 15.8848 19.6649C15.9482 19.7708 15.9668 19.8949 15.9369 20.0143M15.7135 19.0043C15.7135 19.0043 15.7135 19.0043 15.7135 19.0043M15.7135 19.0043C15.9526 19.064 16.156 19.215 16.2826 19.426L16.3337 19.3954M15.7135 19.0043L15.7279 18.9464M15.7135 19.0043L15.6154 19.3966C15.7512 19.4305 15.8637 19.5139 15.9357 19.634C15.9358 19.6341 15.9358 19.6342 15.9359 19.6342C15.9359 19.6342 15.9359 19.6342 15.9359 19.6343C16.0081 19.755 16.0286 19.8934 15.9947 20.0286L15.9947 20.0288L15.9369 20.0143M15.7135 19.0043C15.7134 19.0043 15.7134 19.0042 15.7133 19.0042L15.7127 19.0041C15.641 18.9863 15.5684 18.9772 15.4961 18.9765M15.7135 19.0043L15.7279 18.9464M15.2758 21.1096L15.5375 20.9527L15.8072 21.1118C15.888 21.1594 15.949 21.2191 15.9903 21.2881L15.9905 21.2883C15.9905 21.2884 15.9906 21.2885 15.9906 21.2886L15.9397 21.3192M15.2758 21.1096L16.0497 21.6832C16.0834 21.5475 16.0628 21.4092 15.9906 21.2886L15.9397 21.3192M15.2758 21.1096L15.3065 21.1608M15.2758 21.1096L15.2758 21.1096L15.3065 21.1608M15.9397 21.3192C15.8087 21.1009 15.5245 21.0299 15.3065 21.1608M15.9397 21.3192C16.0033 21.425 16.0219 21.5493 15.992 21.6688L15.3065 21.1608M16.3819 21.0389C16.3841 21.0425 16.3863 21.0461 16.3885 21.0498L16.3819 21.0389ZM16.3819 21.0389C16.3662 21.0511 16.3503 21.0631 16.3341 21.0747C16.3352 21.0764 16.3363 21.0782 16.3374 21.08L16.3819 21.0389ZM16.3097 20.3311C16.3431 20.267 16.3692 20.1986 16.3871 20.1269L16.3097 20.3311ZM16.3097 20.3311C16.3263 20.3415 16.3428 20.3522 16.3592 20.3633C16.3964 20.294 16.4253 20.2197 16.4449 20.1412C16.5087 19.8862 16.4692 19.6214 16.3337 19.3954M16.3097 20.3311L16.3871 20.1268C16.4469 19.8876 16.4092 19.6373 16.2829 19.4264L16.2827 19.4261C16.2827 19.4261 16.2827 19.426 16.2826 19.426L16.3337 19.3954M16.3337 19.3954C16.1984 19.1697 15.9833 19.0102 15.7279 18.9464M15.7279 18.9464L15.4909 18.9165M15.4909 18.9165C15.493 18.9365 15.4947 18.9566 15.4961 18.9765M15.4909 18.9165C15.4896 18.9165 15.4884 18.9165 15.4872 18.9165C15.3302 18.9165 15.1761 18.9567 15.0344 19.0307M15.4909 18.9165L15.0344 19.0307M15.4961 18.9765C15.4968 18.9874 15.4974 18.9983 15.498 19.0091L15.4872 19.0096L15.1991 19.023M15.4961 18.9765C15.4931 18.9765 15.4901 18.9765 15.4872 18.9765C15.3893 18.9766 15.2921 18.9923 15.1991 19.023M15.1991 19.023L15.0344 19.0307M15.1991 19.023C15.1518 19.0386 15.1056 19.0582 15.0609 19.0815C15.0447 19.09 15.0287 19.099 15.0129 19.1084L15.0127 19.1085L14.9797 19.1283M15.0344 19.0307L14.7699 19.2542L14.77 19.2541L14.9533 19.3C14.9533 19.3001 14.9533 19.3001 14.9533 19.3001C14.9676 19.2431 14.9763 19.1856 14.9797 19.1283M15.0344 19.0307L14.9636 18.8949M15.0344 19.0307C15.0271 18.8726 14.9854 18.7169 14.9054 18.5779C14.8872 18.586 14.8692 18.5944 14.8513 18.6032M14.9797 19.1283C14.9816 19.0965 14.9818 19.0648 14.9804 19.0332C14.9783 18.9866 14.9727 18.9404 14.9636 18.8949M14.9797 19.1283L14.9636 18.8949M14.9636 18.8949L14.8197 18.6193C14.8302 18.6138 14.8407 18.6085 14.8513 18.6032M14.9636 18.8949L14.8148 18.5463C14.8277 18.5649 14.8399 18.5839 14.8513 18.6032M14.9636 18.8949C14.9432 18.7929 14.9054 18.6944 14.8513 18.6032M16.043 20.7121L16.1223 20.5776C16.0879 20.6098 16.051 20.6394 16.0117 20.6663C15.9966 20.6766 15.9811 20.6865 15.9653 20.696L15.9651 20.6961L15.9315 20.7163L16.043 20.7121ZM8.63216 18.5525L8.5794 18.5247C8.5697 18.5422 8.54556 18.5857 8.50989 18.6499C8.50106 18.6658 8.49152 18.683 8.48132 18.7014C8.4995 18.7105 8.51784 18.7184 8.53622 18.7253C8.56759 18.6688 8.59957 18.6112 8.63216 18.5525ZM12.7791 23.8231C12.7791 23.8231 12.779 23.8232 12.779 23.8232L12.7791 23.8231Z" fill="#4CAF4F" stroke="#4CAF4F" stroke-width="0.928093"/>
<path id="Vector_3" d="M24.4811 19.3886L24.4811 19.3886L24.4811 19.3886ZM24.4811 19.3886C24.3839 19.2144 24.3878 18.9999 24.4908 18.8282L24.4811 19.3886ZM18.7395 18.9763C18.667 18.9769 18.5941 18.9861 18.5222 19.0041L18.7395 18.9763ZM18.7395 18.9763C18.7409 18.9564 18.7426 18.9364 18.7448 18.9164L18.7395 18.9763ZM24.0635 19.714L24.0241 19.643L24.0635 19.714ZM22.9453 21.3415C22.9452 21.3415 22.9451 21.3414 22.945 21.3413L22.9452 21.3414L22.9453 21.3415ZM21.4565 23.8235C21.4564 23.8234 21.4563 23.8233 21.4561 23.8233L21.4565 23.8235ZM21.456 23.8232L21.4561 23.8233L21.456 23.8232Z" fill="#4CAF4F" stroke="#4CAF4F" stroke-width="0.928093"/>
</g>
</g>
</svg>
