<svg width="35" height="34" viewBox="0 0 35 34" fill="none" xmlns="http://www.w3.org/2000/svg">
<g id="Icon">
<path id="Vector" d="M17.373 7.39343C14.8872 7.39343 12.8635 9.43562 12.8635 11.932C12.8635 13.5113 13.6744 14.9057 14.899 15.7185C13.42 16.2131 12.1402 17.1374 11.2015 18.3466C10.6825 17.9474 10.1027 17.6263 9.47754 17.3963C10.4255 16.6925 11.045 15.5621 11.045 14.2915C11.045 12.1742 9.33257 10.441 7.22814 10.441C5.1237 10.441 3.41131 12.1742 3.41131 14.2915C3.41131 15.5628 4.0313 16.6938 4.98005 17.3976C2.46823 18.3244 0.674316 20.7512 0.674316 23.6072V25.6133C0.674573 25.7663 0.735749 25.9128 0.844219 26.0205C0.952688 26.1285 1.09946 26.1886 1.2524 26.1881H10.0542C10.0755 26.1904 10.0968 26.1917 10.1182 26.1914H24.6283C24.6497 26.1917 24.6713 26.1904 24.6923 26.1881H33.4948C33.8112 26.1868 34.0675 25.93 34.0682 25.6133V23.6072C34.0682 20.7512 32.2774 18.3244 29.7669 17.3973C30.7156 16.6938 31.3356 15.5625 31.3356 14.2912C31.3356 12.1739 29.6233 10.4407 27.5188 10.4407C25.4144 10.4407 23.702 12.1739 23.702 14.2912C23.702 15.5618 24.3217 16.6925 25.2697 17.396C24.6433 17.6266 24.0631 17.9487 23.5434 18.3489C22.6052 17.1389 21.3272 16.2134 19.8482 15.7185C21.0725 14.9057 21.8837 13.5113 21.8837 11.932C21.8837 9.43562 19.859 7.39343 17.3732 7.39343H17.373ZM17.373 8.54498C19.2322 8.54498 20.731 10.0538 20.731 11.932C20.731 13.7956 19.2556 15.2898 17.417 15.3137C17.4023 15.3137 17.3879 15.3117 17.373 15.3117C17.3581 15.3117 17.344 15.3137 17.3291 15.3137C15.4905 15.2901 14.016 13.7956 14.016 11.932C14.016 10.0536 15.5136 8.54498 17.3728 8.54498H17.373ZM7.2282 11.5924C8.70337 11.5924 9.89348 12.7897 9.89348 14.2914C9.89348 15.783 8.71877 16.9752 7.25748 16.9914C7.24772 16.9914 7.23821 16.9903 7.22818 16.9903C7.21841 16.9903 7.2089 16.9914 7.19888 16.9914C5.7376 16.9752 4.56289 15.7828 4.56289 14.2914C4.56289 12.7898 5.753 11.5924 7.22816 11.5924H7.2282ZM27.5185 11.5924C28.9936 11.5924 30.1837 12.7897 30.1837 14.2914C30.1837 15.783 29.009 16.9752 27.5478 16.9914C27.538 16.9914 27.5285 16.9903 27.5185 16.9903C27.5087 16.9903 27.4992 16.9914 27.4891 16.9914C26.0279 16.9752 24.8532 15.7828 24.8532 14.2914C24.8532 12.7898 26.0433 11.5924 27.5184 11.5924H27.5185ZM17.3289 16.4652C17.3436 16.4655 17.358 16.4672 17.3729 16.4672C17.3875 16.4672 17.4019 16.4652 17.4168 16.4652C21.1041 16.4888 24.055 19.4651 24.055 23.1909L24.0548 25.0396H10.6915V23.1909C10.6915 19.4648 13.6416 16.4889 17.3284 16.4652H17.3289ZM7.18411 18.1442C7.19877 18.1445 7.21316 18.1463 7.22807 18.1463C7.24298 18.1463 7.25711 18.1442 7.27202 18.1442C8.51918 18.1542 9.65737 18.5843 10.5637 19.3037C9.91515 20.4512 9.54011 21.7757 9.54011 23.1912V25.0355H1.8254V23.6071C1.8254 20.5791 4.20614 18.1678 7.18398 18.144L7.18411 18.1442ZM27.4744 18.1442C27.4893 18.1445 27.5034 18.1463 27.5183 18.1463C27.5332 18.1463 27.5474 18.1442 27.5623 18.1442C30.5401 18.1679 32.9209 20.5794 32.9209 23.6074V25.0355H25.2022L25.202 23.1912C25.202 21.7765 24.828 20.453 24.1807 19.3058C25.0873 18.5853 26.2262 18.1542 27.4745 18.1442H27.4744Z" fill="#103E13"/>
</g>
</svg>
