<svg width="33" height="21" viewBox="0 0 33 21" fill="none" xmlns="http://www.w3.org/2000/svg">
<g id="Logo" clip-path="url(#clip0_1_1872)">
<path id="Vector" d="M30.7852 2.7008C30.7852 2.72434 30.7852 2.75376 30.779 2.77141C30.7484 3.0009 30.7484 3.23038 30.7667 3.46575C30.779 3.52459 30.7913 3.58343 30.8403 3.63051C30.92 3.71877 31.0426 3.70112 31.0917 3.5952C31.1162 3.54224 31.1162 3.48928 31.1039 3.43633C31.0426 3.21273 31.0304 2.97736 31.0243 2.74787C31.0243 2.73611 31.0243 2.71845 31.0243 2.7008C31.0917 2.69492 31.153 2.68903 31.2082 2.68903C31.2511 2.68315 31.2879 2.67726 31.3186 2.65961C31.4105 2.61254 31.4105 2.51251 31.3124 2.46543C31.2756 2.44778 31.2266 2.44189 31.1837 2.44189C31.0304 2.44778 30.8771 2.44778 30.7238 2.44778C30.6687 2.44778 30.6135 2.45367 30.5583 2.45955C30.5276 2.46543 30.4909 2.46543 30.4664 2.48309C30.4234 2.50074 30.3989 2.53016 30.3989 2.57135C30.405 2.61254 30.4234 2.63607 30.4664 2.65373C30.4909 2.67138 30.5215 2.67726 30.5522 2.67726C30.6257 2.68315 30.7055 2.69492 30.7852 2.7008ZM32.4711 2.97147C32.4711 2.97736 32.4772 2.98324 32.4772 2.98324C32.5018 3.14212 32.5263 3.29511 32.5447 3.44809C32.5508 3.50105 32.557 3.54812 32.5937 3.58931C32.6734 3.68934 32.7961 3.67758 32.8512 3.57166C32.8758 3.5187 32.8819 3.46575 32.8696 3.40691C32.8328 3.23038 32.8144 3.05385 32.7777 2.88321C32.7531 2.77729 32.7225 2.67726 32.6918 2.58312C32.6734 2.52428 32.6305 2.48308 32.557 2.4772C32.4834 2.46543 32.4282 2.50074 32.3975 2.5537C32.3608 2.60077 32.3301 2.64784 32.3056 2.7008C32.2627 2.79495 32.2259 2.8891 32.1769 2.97736C32.1707 3.0009 32.1646 3.01855 32.1523 3.0362C32.1462 3.02443 32.1401 3.01855 32.1401 3.01855C32.0603 2.87144 31.9868 2.72434 31.9071 2.58312C31.8948 2.57135 31.8887 2.55958 31.8826 2.54781C31.8458 2.49486 31.8029 2.46543 31.7354 2.46543C31.6741 2.47132 31.625 2.50662 31.5944 2.55958C31.5821 2.58312 31.5821 2.60077 31.576 2.62431C31.5515 2.8126 31.5208 3.0009 31.4963 3.18919C31.484 3.29511 31.4779 3.40102 31.4779 3.50694C31.4718 3.53047 31.4779 3.55989 31.4902 3.58343C31.5025 3.6305 31.5392 3.65993 31.5883 3.66581C31.6496 3.6717 31.6925 3.65404 31.7109 3.60697C31.7293 3.57166 31.7354 3.54224 31.7416 3.51282C31.7661 3.40691 31.7845 3.30687 31.8029 3.20684C31.8151 3.148 31.8212 3.10093 31.8397 3.0362C31.8519 3.05974 31.8641 3.07739 31.8764 3.09504C31.9316 3.16565 31.9868 3.23626 32.0542 3.29511C32.1217 3.34218 32.1769 3.3363 32.232 3.28333C32.2443 3.27157 32.2504 3.26569 32.2627 3.25391C32.3179 3.17154 32.3853 3.08916 32.4405 3.00678C32.4527 2.99501 32.4589 2.98324 32.4711 2.97147Z" fill="#3A3B7B"/>
<path id="Vector_2" d="M18.345 2.81635C18.3023 2.92817 18.2942 3.00874 18.3139 3.0757C18.3356 3.16676 18.392 3.19657 18.4686 3.17341C19.1887 3.0025 20.7678 3.48761 21.3524 3.62281C21.4902 3.6512 21.6024 3.48038 21.5083 3.32722C21.371 3.1789 19.7927 2.54388 19.1904 2.50926C18.9543 2.49645 18.5323 2.43835 18.345 2.81635Z" fill="#3A3B7B"/>
<path id="Vector_3" d="M24.5163 0.760713C24.593 0.803228 24.6359 0.843783 24.6571 0.889096C24.6886 0.948535 24.672 0.989659 24.619 1.01064C24.143 1.23362 23.5096 2.19356 23.2539 2.52463C23.1919 2.60079 23.0489 2.55653 23.0273 2.43129C23.0318 2.28968 23.5933 1.24793 23.9066 0.964188C24.0298 0.853408 24.2332 0.636045 24.5163 0.760713Z" fill="#3A3B7B"/>
<path id="Vector_4" d="M20.7255 0.288205C20.8177 0.22151 20.9135 0.198138 20.9624 0.241481C21.6806 0.830981 22.0615 1.76451 22.2973 2.61913C22.3062 2.63904 22.3067 2.66761 22.2996 2.69742C22.2967 2.72289 22.2773 2.7498 22.2465 2.77063C22.2136 2.79362 22.1853 2.80062 22.1719 2.78081C21.8572 2.3699 20.0594 0.77112 20.7255 0.288205Z" fill="#3A3B7B"/>
<path id="Vector_5" d="M5.51707 10.5086C5.6892 10.3856 5.87633 10.2832 6.07435 10.2037C6.28153 10.1469 6.50236 10.1563 6.70346 10.2306C6.90452 10.3049 7.07497 10.44 7.18891 10.6156C7.29084 10.7906 7.33071 10.9928 7.30257 11.1915C7.27444 11.3902 7.1798 11.5748 7.03286 11.7174C6.91896 11.833 6.78965 11.9337 6.64836 12.0169C6.01864 12.4074 5.38331 12.7764 4.74801 13.1669C4.61802 13.2646 4.48011 13.3523 4.33562 13.429C4.11583 13.5342 3.86465 13.5624 3.62551 13.5086C3.38637 13.455 3.17431 13.3227 3.026 13.1348C2.91513 13.0018 2.82155 12.8563 2.74735 12.7016C2.14548 11.4874 1.52133 10.2786 0.94175 9.04303C0.674251 8.50819 0.456911 7.89307 0.245142 7.29937C0.153522 7.12687 0.13563 6.92689 0.195278 6.74192C0.254925 6.55694 0.387406 6.4016 0.564538 6.30893C0.741672 6.21626 0.94948 6.19359 1.14377 6.24571C1.33806 6.29782 1.50351 6.42064 1.60492 6.588C1.91662 6.98557 2.19255 7.40787 2.4297 7.85031C3.03157 8.92003 3.60558 9.98976 4.18515 11.0274C4.2189 11.0848 4.25611 11.1401 4.29661 11.1932C4.73284 11.0172 5.14313 10.787 5.51707 10.5086Z" fill="#3A3B7B"/>
<path id="Vector_6" d="M11.7401 10.1355C10.3636 11.6812 8.05643 11.2908 6.89728 9.30109C6.07249 7.88903 5.9276 5.55699 7.72208 4.08611C8.10527 3.77817 8.56347 3.56839 9.05397 3.47635C9.65537 3.3936 10.2686 3.49543 10.8061 3.76729C11.3436 4.03915 11.7777 4.46712 12.0466 4.99004C13.0274 6.70163 12.8881 8.88388 11.7401 10.1355ZM11.1828 6.53047C11.0366 6.10986 10.7432 5.75078 10.3524 5.51419C10.1313 5.36293 9.86264 5.28939 9.59167 5.30595C9.32064 5.32252 9.06388 5.42817 8.8645 5.60512C8.0676 6.28443 7.90038 7.8944 8.47996 8.85181C8.55385 9.00793 8.66232 9.14666 8.7979 9.25833C8.93348 9.37 9.09285 9.45189 9.26484 9.49822C9.43683 9.5446 9.61728 9.55433 9.79361 9.52676C9.96995 9.49914 10.1378 9.43491 10.2856 9.33852C10.7176 9.01706 11.0345 8.57444 11.1923 8.07217C11.3501 7.56986 11.341 7.03287 11.1661 6.53583L11.1828 6.53047Z" fill="#3A3B7B"/>
<path id="Vector_7" d="M17.3572 7.20433C17.2163 7.23342 17.0707 7.23516 16.929 7.20942C16.7874 7.18369 16.6525 7.13106 16.5324 7.05459C16.4273 6.99687 16.3368 6.91755 16.2675 6.82226C16.1982 6.72698 16.1517 6.61816 16.1315 6.50355C16.1112 6.389 16.1177 6.27155 16.1504 6.15966C16.1831 6.04776 16.2413 5.94422 16.3207 5.85646C16.459 5.6801 16.6554 5.55385 16.8779 5.49811C17.459 5.33625 18.0572 5.23757 18.6613 5.20394C18.794 5.18912 18.9284 5.19991 19.0567 5.23564C19.1851 5.27143 19.3046 5.33139 19.4085 5.41213C19.5123 5.49283 19.5983 5.59266 19.6614 5.7057C19.7244 5.81874 19.7633 5.94275 19.7758 6.07043C19.95 6.69757 19.969 7.35513 19.8315 7.99062C19.33 10.0445 17.6024 10.7505 15.663 10.0926C15.1187 9.91674 14.6413 9.58899 14.2921 9.15127C13.8264 8.62414 13.4961 7.99943 13.328 7.32737C13.1918 6.7289 13.2067 6.10791 13.3716 5.51614C13.5364 4.92437 13.8463 4.379 14.2754 3.92559C14.6827 3.43279 15.2112 3.04496 15.8135 2.79702C16.1941 2.59568 16.6395 2.53844 17.0619 2.63656C17.1577 2.66201 17.2446 2.7116 17.3138 2.78019C17.3829 2.84879 17.4316 2.93388 17.4549 3.02665C17.4783 3.11941 17.4753 3.21647 17.4463 3.30777C17.4174 3.39906 17.3635 3.48126 17.2903 3.54584C17.1512 3.66675 17 3.77424 16.8389 3.86676C16.3435 4.16958 15.9123 4.55979 15.5683 5.01672C15.3428 5.3124 15.1875 5.65193 15.1134 6.01138C15.0392 6.37083 15.048 6.74152 15.1392 7.09739C15.2656 7.58259 15.5461 8.0181 15.9417 8.3436C17.1677 9.41337 18.7615 8.38104 18.4829 6.92085C18.0761 7.01715 17.7194 7.11877 17.3572 7.20433Z" fill="#3A3B7B"/>
<path id="Vector_8" d="M24.8476 10.2211C23.0365 11.2908 20.9745 10.2211 20.5231 7.97466C20.1943 6.37005 20.8185 4.12359 23.0031 3.2678C23.4679 3.08963 23.972 3.02708 24.4687 3.08594C25.0655 3.19079 25.613 3.47277 26.0339 3.89212C26.4548 4.31146 26.728 4.84702 26.8149 5.42333C27.1827 7.33279 26.3468 9.37066 24.8476 10.2211ZM25.4774 6.62141C25.4769 6.17709 25.3131 5.74713 25.0149 5.40727C24.8555 5.19706 24.625 5.04644 24.3628 4.98107C24.1006 4.91574 23.8229 4.93969 23.577 5.04892C22.5962 5.45539 21.9052 6.93163 22.156 8.01746C22.1751 8.18785 22.2328 8.35218 22.325 8.49894C22.4172 8.6457 22.5417 8.77136 22.6898 8.86715C22.8379 8.9629 23.006 9.02648 23.1823 9.05341C23.3587 9.0803 23.5391 9.06993 23.7108 9.023C24.2292 8.84917 24.6781 8.52431 24.9948 8.09375C25.3116 7.66319 25.4803 7.14845 25.4774 6.62141Z" fill="#3A3B7B"/>
<path id="Vector_9" d="M28.646 10.6704C28.6187 10.8661 28.5115 11.0434 28.3479 11.1633C28.1843 11.2832 27.9779 11.3358 27.7739 11.3095C27.5699 11.2833 27.3852 11.1803 27.2603 11.0233C27.1354 10.8664 27.0806 10.6682 27.108 10.4725C27.1353 10.2767 27.2426 10.0994 27.4061 9.9795C27.5697 9.85962 27.7761 9.80705 27.9801 9.83329C28.1841 9.85953 28.3688 9.96243 28.4937 10.1194C28.6186 10.2764 28.6734 10.4746 28.646 10.6704ZM28.1612 3.45495C28.2672 3.29959 28.4227 3.18128 28.6045 3.11766C28.7863 3.05404 28.9846 3.04853 29.1699 3.10194C29.3583 3.14718 29.5247 3.25316 29.6414 3.40214C29.7581 3.55112 29.8179 3.73405 29.8108 3.92029C29.7862 4.21903 29.7397 4.51573 29.6715 4.80816C29.4876 5.79769 29.3092 6.78717 29.1142 7.76601C29.025 8.15647 28.908 8.53088 28.7798 8.92666C28.7352 9.05039 28.6607 9.1622 28.5625 9.25294C28.5014 9.32121 28.4234 9.37355 28.3356 9.40516C28.2479 9.43682 28.1532 9.44668 28.0604 9.43388C27.9677 9.42108 27.8797 9.38603 27.8048 9.33199C27.7299 9.2779 27.6704 9.20656 27.6318 9.12458C27.5656 8.97749 27.5296 8.81945 27.5259 8.65924C27.5259 7.996 27.5259 7.32743 27.5705 6.65881C27.6463 5.70465 27.7953 4.75714 28.0163 3.82401C28.0424 3.699 28.0914 3.57945 28.1612 3.471V3.45495Z" fill="#3A3B7B"/>
<path id="Vector_10" fill-rule="evenodd" clip-rule="evenodd" d="M3.16243 14.9684C3.09663 15.1094 3.07859 15.2666 3.11074 15.4178C3.13213 15.6172 3.17912 15.8134 3.25062 16.0017C3.3399 16.2324 3.4398 16.4605 3.56298 16.7416C3.5913 16.8063 3.6209 16.8739 3.65188 16.9449C3.81799 17.3258 4.02642 17.8126 4.30443 18.517C4.38311 18.7171 4.45299 18.9189 4.52336 19.122C4.55178 19.2041 4.58031 19.2865 4.60951 19.369C4.71418 19.6624 4.89428 19.926 5.13301 20.135C5.23438 20.2498 5.36884 20.3335 5.51961 20.3753C5.67332 20.418 5.83681 20.4153 5.98889 20.3676C6.14097 20.3198 6.27454 20.2292 6.37226 20.1076C6.46807 19.9884 6.52504 19.8447 6.53612 19.6946C6.59828 19.4022 6.57706 19.099 6.47462 18.817C6.31202 18.3489 6.12681 17.8802 5.91322 17.4217L5.91224 17.4197C5.56088 16.7023 5.20372 15.9899 4.82966 15.2773L4.82686 15.2723C4.71736 15.0866 4.57505 14.9206 4.40634 14.7818C4.29681 14.6579 4.14572 14.5743 3.97888 14.5455C3.80847 14.5161 3.63272 14.5457 3.48301 14.6292C3.34138 14.7068 3.22911 14.8256 3.16243 14.9684Z" fill="#3A3B7B"/>
<path id="Vector_11" fill-rule="evenodd" clip-rule="evenodd" d="M8.5292 13.2021C7.97827 13.0652 7.4029 13.0452 6.84319 13.1437C6.40967 13.1846 5.98329 13.2806 5.68722 13.4707C5.53664 13.5675 5.41489 13.6917 5.34717 13.8496C5.27908 14.0084 5.27038 14.19 5.32619 14.3923C5.42807 14.7629 5.56038 15.1232 5.69222 15.4824L5.71358 15.5406L5.71409 15.5418C6.11107 16.5853 6.51183 17.6252 6.91624 18.6615C6.9634 18.8248 7.03009 18.9824 7.11496 19.131L7.11655 19.1337C7.22867 19.3183 7.37248 19.4834 7.5419 19.6221C7.62663 19.6984 7.73141 19.7511 7.84503 19.7747C7.95976 19.7985 8.07908 19.7916 8.18999 19.7547C8.30094 19.7179 8.39918 19.6525 8.47405 19.5657C8.5477 19.4803 8.59594 19.3775 8.61365 19.268C8.68674 18.9706 8.66333 18.6589 8.54649 18.3746C8.51003 18.279 8.48143 18.1812 8.45129 18.0783C8.44124 18.044 8.43105 18.0091 8.4203 17.9735C9.346 17.6262 10.331 17.1592 10.6773 16.0729C10.813 15.6975 10.8243 15.2909 10.7097 14.9091C10.595 14.5268 10.3597 14.1879 10.0362 13.9392C9.59586 13.591 9.08152 13.3394 8.5292 13.2021ZM7.00209 14.5346C7.02032 14.5296 7.03869 14.5249 7.0571 14.5205C7.65977 14.4296 8.27635 14.5508 8.79335 14.8616C9.02119 15.0137 9.11452 15.1827 9.13055 15.3453C9.14709 15.5127 9.08367 15.6941 8.95627 15.8684C8.71553 16.1978 8.27621 16.4615 7.87938 16.5106C7.59008 15.8712 7.2963 15.2059 7.00209 14.5346Z" fill="#3A3B7B"/>
<path id="Vector_12" d="M12.2021 12.0316C12.8582 11.7408 13.6709 11.6906 14.3068 11.895C14.467 11.9398 14.606 12.0367 14.6999 12.169C14.7933 12.3005 14.8364 12.4591 14.822 12.6175C14.8211 12.7204 14.7948 12.8216 14.7453 12.9129C14.6949 13.0058 14.6219 13.0857 14.5326 13.1459C14.4432 13.2061 14.3401 13.2447 14.2319 13.2586C14.1236 13.2724 14.0136 13.261 13.9109 13.2254L13.9031 13.2227L13.8958 13.219C13.8432 13.1926 13.7874 13.1727 13.7297 13.1598L13.7261 13.159C13.2787 13.045 12.8567 13.2339 12.7026 13.4661C12.6291 13.5768 12.62 13.6886 12.6812 13.7902C12.7467 13.8991 12.9076 14.0213 13.233 14.1083C13.3225 14.1319 13.4142 14.1547 13.5073 14.1778C13.7646 14.2418 14.032 14.3082 14.2906 14.4003L14.2916 14.4006C15.4846 14.8363 15.9288 15.7385 15.7767 16.5872C15.6263 17.4264 14.896 18.1902 13.7979 18.3703C13.3983 18.4554 12.9824 18.4388 12.5915 18.3223C12.1996 18.2055 11.8463 17.9923 11.5668 17.7038L11.5595 17.6963C11.4712 17.5876 11.4119 17.4599 11.3856 17.3244C11.3614 17.2022 11.3741 17.0758 11.4222 16.9603C11.4701 16.8454 11.5511 16.746 11.6555 16.6735C11.7659 16.5914 11.8989 16.5421 12.0381 16.5319C12.1769 16.5216 12.3157 16.5506 12.4375 16.6151C12.5592 16.6715 12.6724 16.7435 12.774 16.8291L12.776 16.8307C12.9557 16.9884 13.1732 17.0295 13.3817 16.9915C13.5933 16.9528 13.7922 16.8327 13.9202 16.6732C14.0473 16.5148 14.0984 16.3266 14.0378 16.144C13.9768 15.9599 13.7936 15.7538 13.391 15.5814C13.2857 15.5385 13.1766 15.5039 13.0631 15.4703C13.0324 15.4612 13.0013 15.4521 12.9698 15.443C12.8859 15.4185 12.7995 15.3933 12.7148 15.3656C12.6565 15.3465 12.5986 15.3284 12.5413 15.3105C12.3847 15.2615 12.232 15.2138 12.0851 15.1498C11.7653 15.0453 11.489 14.8446 11.2973 14.5775C11.1049 14.3093 11.008 13.9886 11.0212 13.6632C11.0222 12.8703 11.5425 12.324 12.2021 12.0316Z" fill="#3A3B7B"/>
<path id="Vector_13" d="M20.5198 11.9472C20.3926 11.8876 20.2519 11.8593 20.1105 11.8648C19.969 11.8704 19.8312 11.9097 19.7096 11.9792C19.5887 12.0482 19.4874 12.1448 19.4149 12.2605C19.3484 12.3579 19.3024 12.4668 19.2794 12.5811C19.2565 12.6954 19.257 12.8129 19.281 12.9269C19.3047 13.0734 19.331 13.2159 19.3569 13.3564C19.3999 13.589 19.4416 13.8163 19.4692 14.0481L19.4702 14.0539C19.533 14.4174 19.5659 14.785 19.5688 15.1534L19.5691 15.1587C19.5905 15.5565 19.4493 15.9466 19.1757 16.2462L19.1713 16.2515C19.0823 16.361 18.9633 16.4446 18.8275 16.4929C18.6918 16.5412 18.5447 16.5523 18.4028 16.525C18.2609 16.4976 18.1297 16.433 18.0239 16.3381C17.9181 16.2433 17.8417 16.1217 17.8036 15.9877C17.7223 15.7053 17.6753 15.4147 17.6633 15.1219L17.8022 12.9995C17.8042 12.9718 17.8066 12.9433 17.809 12.9146C17.8142 12.8502 17.8197 12.7845 17.8219 12.7233C17.8252 12.6332 17.8224 12.5405 17.8005 12.4528C17.7781 12.3631 17.7355 12.2779 17.66 12.2052C17.5852 12.1333 17.4843 12.0803 17.3573 12.0442C17.1276 11.9804 16.9333 11.9824 16.7715 12.0483C16.6095 12.1143 16.4986 12.2367 16.4201 12.378C16.3422 12.5183 16.2921 12.6842 16.2542 12.8505C16.2262 12.9739 16.2036 13.1034 16.1821 13.2266C16.1747 13.2691 16.1675 13.3108 16.1601 13.3513L16.1599 13.3525C16.0451 14.0286 16.011 14.715 16.0581 15.3985C16.0669 15.7678 16.1471 16.1324 16.2948 16.4736C16.4614 16.9138 16.7632 17.2953 17.1603 17.5676C17.5583 17.8404 18.0332 17.9907 18.5221 17.9987C19.0111 18.0066 19.491 17.8718 19.8984 17.6121C20.305 17.3527 20.6202 16.981 20.8022 16.5461C21.0568 15.9922 21.1763 15.3897 21.1517 14.7847C21.1367 14.343 21.1117 13.8979 21.0868 13.455C21.0745 13.2378 21.0623 13.021 21.0514 12.8056C21.0459 12.5895 20.9716 12.3803 20.8386 12.2059C20.7563 12.0957 20.6468 12.0068 20.5198 11.9472Z" fill="#3A3B7B"/>
<path id="Vector_14" d="M25.0222 15.2752C25.0093 15.2909 24.9957 15.3072 24.9815 15.3241C24.878 14.7512 24.7821 14.1785 24.6861 13.6049C24.6516 13.3991 24.617 13.1924 24.5822 12.9863L24.5782 12.9633L24.5655 12.9435C24.5415 12.9061 24.5392 12.8694 24.5392 12.7912V12.7822L24.5377 12.7733C24.5117 12.6118 24.4356 12.4616 24.3194 12.3422C24.2035 12.2231 24.053 12.1403 23.8874 12.1043C23.7221 12.0652 23.5484 12.0738 23.3881 12.1291C23.2283 12.1843 23.0889 12.2835 22.9875 12.4143C22.9032 12.5146 22.8341 12.6259 22.7823 12.7448C22.6648 13.001 22.5462 13.2578 22.4273 13.5153L22.4252 13.5198C22.1284 14.1627 21.8296 14.8098 21.5395 15.4621L21.5386 15.4642C21.3605 15.8872 21.2134 16.3328 21.0669 16.7771C21.0376 16.8658 21.0084 16.9544 20.9789 17.0428C20.926 17.183 20.9029 17.332 20.9108 17.4808C20.9012 17.6141 20.9344 17.747 21.0061 17.8617C21.0792 17.9787 21.1887 18.0707 21.3191 18.1249C21.4574 18.1831 21.6119 18.1954 21.7584 18.16C21.9045 18.1246 22.0342 18.0437 22.1272 17.9299C22.2459 17.7898 22.348 17.6369 22.4313 17.475C22.6771 16.9924 22.912 16.504 23.1458 16.0177C23.2363 15.8296 23.3242 15.6611 23.4242 15.4777C23.4311 15.5003 23.4381 15.5224 23.4453 15.5445C23.5501 15.9874 23.7271 16.4117 23.9696 16.8017C24.0155 16.8844 24.0794 16.9566 24.157 17.0134C24.2355 17.071 24.3261 17.1113 24.4226 17.1318C24.519 17.1523 24.6189 17.1524 24.7154 17.1321C24.8117 17.1118 24.9026 17.0714 24.9811 17.0142L25.1366 16.9024L26.3435 15.9268L26.2721 16.3633C26.1742 16.9633 26.077 17.5584 25.9737 18.1535C25.9061 18.4173 25.9062 18.6929 25.974 18.9566C26.0033 19.105 26.0781 19.2416 26.1888 19.349C26.3004 19.4574 26.4433 19.5309 26.599 19.5603C26.7547 19.5896 26.9161 19.5734 27.062 19.5136C27.2059 19.4547 27.3282 19.3563 27.4138 19.2308C27.6128 18.9939 27.7366 18.707 27.7706 18.4043C27.8219 17.9769 27.8797 17.5437 27.9376 17.1106C28.0043 16.6114 28.071 16.1124 28.1273 15.6229L28.1275 15.6214C28.1817 15.0856 28.2079 14.5476 28.2061 14.0093C28.218 13.8392 28.1739 13.6697 28.0798 13.5249C27.9855 13.3795 27.8457 13.2665 27.6806 13.2019C27.5088 13.1269 27.3165 13.1069 27.1319 13.1448C26.9486 13.1824 26.7826 13.2752 26.6581 13.4095C26.4355 13.6071 26.2267 13.8186 26.0329 14.0425L26.0316 14.044C25.8202 14.2969 25.6101 14.5548 25.4014 14.811C25.2746 14.9668 25.148 15.1222 25.0222 15.2752Z" fill="#3A3B7B"/>
</g>
<defs>
<clipPath id="clip0_1_1872">
<rect width="32.7153" height="20.186" fill="white" transform="translate(0.160645 0.219482)"/>
</clipPath>
</defs>
</svg>
