<svg width="29" height="20" viewBox="0 0 29 20" fill="none" xmlns="http://www.w3.org/2000/svg">
<g id="Logo" clip-path="url(#clip0_1_1888)">
<path id="Vector" d="M27.0806 1.50296C27.0806 1.82732 27.3467 2.09027 27.6751 2.09027H28.2697C28.5981 2.09027 28.8642 1.82732 28.8642 1.50296C28.8642 1.1786 28.5981 0.915649 28.2697 0.915649H27.6751C27.3467 0.915649 27.0806 1.1786 27.0806 1.50296Z" fill="#212326"/>
<path id="Vector_2" d="M9.83815 19.7095H12.7264L11.8856 18.8789C11.6626 18.6587 11.3601 18.5349 11.0448 18.5349H9.83815C5.24101 18.5349 1.51431 14.8537 1.51431 10.3126C1.51431 5.77152 5.24101 2.09027 9.83815 2.09027H19.3511C23.9482 2.09027 27.6749 5.77152 27.6749 10.3126C27.6749 14.8537 23.9482 18.5349 19.3511 18.5349H15.7925C15.3194 18.5349 14.8657 18.3493 14.5312 18.0189L13.5462 17.0458C12.9886 16.4951 12.2325 16.1857 11.444 16.1857H9.83815C6.55446 16.1857 3.89255 13.5562 3.89255 10.3126C3.89255 7.06895 6.55446 4.4395 9.83815 4.4395H19.3511C22.6348 4.4395 25.2967 7.06895 25.2967 10.3126C25.2967 13.5562 22.6348 16.1857 19.3511 16.1857H17.0661C16.5931 16.1857 16.1394 16 15.8049 15.6696L14.8197 14.6965C14.2622 14.1458 13.5061 13.8364 12.7177 13.8364H9.83815C7.86797 13.8364 6.27079 12.2587 6.27079 10.3126C6.27079 8.36643 7.86797 6.78874 9.83815 6.78874H19.3511C21.3213 6.78874 22.9185 8.36643 22.9185 10.3126C22.9185 12.235 21.36 13.7979 19.423 13.8357L19.4226 13.8364H18.5525C18.0795 13.8364 17.6258 13.6508 17.2913 13.3204L16.3061 12.3473C15.8487 11.8954 15.2575 11.606 14.6245 11.5167L14.5946 11.4872H9.83815C9.18142 11.4872 8.64903 10.9613 8.64903 10.3126C8.64903 9.66387 9.18142 9.13797 9.83815 9.13797H19.3511C20.0078 9.13797 20.5402 9.66387 20.5402 10.3126C20.5402 10.9613 20.0078 11.4872 19.3511 11.4872H16.9729L17.8137 12.3178C18.0367 12.5381 18.3392 12.6618 18.6545 12.6618H19.3511C20.6645 12.6618 21.7293 11.61 21.7293 10.3126C21.7293 9.01515 20.6645 7.96335 19.3511 7.96335H9.83815C8.52469 7.96335 7.45991 9.01515 7.45991 10.3126C7.45991 11.61 8.52469 12.6618 9.83815 12.6618H14.2041C14.6771 12.6618 15.1308 12.8475 15.4653 13.1779L16.4505 14.151C17.008 14.7017 17.7641 15.0111 18.5525 15.0111H19.6484V15.002C22.1368 14.8505 24.1076 12.8088 24.1076 10.3126C24.1076 7.71772 21.978 5.61412 19.3511 5.61412H9.83815C7.21124 5.61412 5.08167 7.71772 5.08167 10.3126C5.08167 12.9075 7.21124 15.0111 9.83815 15.0111H12.7177C13.1907 15.0111 13.6444 15.1967 13.9789 15.5271L14.9641 16.5002C15.5216 17.0509 16.2777 17.3603 17.0661 17.3603H19.3511C23.2915 17.3603 26.4858 14.2049 26.4858 10.3126C26.4858 6.42023 23.2915 3.26488 19.3511 3.26488H9.83815C5.89774 3.26488 2.70343 6.42023 2.70343 10.3126C2.70343 14.2049 5.89774 17.3603 9.83815 17.3603H11.444C11.9171 17.3603 12.3708 17.5459 12.7053 17.8763L13.6904 18.8494C14.2479 19.4001 15.0041 19.7095 15.7925 19.7095H19.3511C24.605 19.7095 28.864 15.5024 28.864 10.3126C28.864 5.1228 24.605 0.915649 19.3511 0.915649L9.83815 0.915651C4.58429 0.915652 0.325195 5.1228 0.325195 10.3126C0.325196 15.5024 4.58429 19.7095 9.83815 19.7095Z" fill="#212326"/>
</g>
<defs>
<clipPath id="clip0_1_1888">
<rect width="28.5388" height="18.7939" fill="white" transform="translate(0.325195 0.915649)"/>
</clipPath>
</defs>
</svg>
