<svg width="39" height="22" viewBox="0 0 39 22" fill="none" xmlns="http://www.w3.org/2000/svg">
<g id="Logo" clip-path="url(#clip0_1_1868)">
<path id="Vector" d="M38.5802 7.95026C38.5841 7.92123 38.5841 7.89189 38.5802 7.86286C38.5839 7.83921 38.5839 7.8151 38.5802 7.79139L38.2965 5.75007C38.2556 5.50585 38.1462 5.27758 37.9806 5.09081L37.9319 5.0352L37.8429 4.94783L32.9331 0.801639L33.0708 0.936679C32.9581 0.804507 32.8167 0.698787 32.6569 0.627307C32.497 0.555826 32.3228 0.520401 32.1472 0.523645H30.6564C30.414 0.518936 30.1771 0.594496 29.984 0.738106C29.7811 0.595361 29.5369 0.520188 29.2872 0.523645H27.7964C27.6009 0.520535 27.408 0.568107 27.2373 0.661557C27.0666 0.755008 26.9241 0.891019 26.8242 1.05582C26.6702 1.29119 26.6124 1.57479 26.6621 1.85011L26.8485 3.13685C26.725 3.06824 26.5853 3.03264 26.4434 3.03361H19.2246C18.9655 3.0352 18.7125 3.10962 18.4954 3.24805C18.2854 3.37691 18.1168 3.56141 18.0093 3.78022L17.4502 3.3116C17.2302 3.11201 16.9398 3.00383 16.64 3.00977H5.31348C5.05356 3.01441 4.79941 3.0856 4.57622 3.21629C4.27087 3.3915 4.0471 3.67639 3.95235 4.01057L0.355083 15.8058C0.287869 16.0001 0.281257 16.2097 0.336094 16.4078C0.390931 16.6058 0.504733 16.7834 0.662961 16.9178C0.704191 16.9521 0.747482 16.9839 0.792595 17.0131C0.792595 17.0131 0.719666 16.9654 0.679156 16.9257L5.58897 21.0799C5.79666 21.2673 6.06821 21.3721 6.3505 21.3737H17.7662C18.0269 21.3671 18.2812 21.2931 18.5035 21.1593C18.6292 21.0919 18.7416 21.0032 18.8357 20.8971L18.8762 20.8415L18.941 20.7621L18.9896 20.6748L19.5243 21.1275C19.729 21.3075 19.9947 21.4066 20.2697 21.4055H31.7097C31.9701 21.397 32.2239 21.3232 32.4469 21.1911C32.5698 21.1196 32.6816 21.0313 32.7792 20.9289L32.8196 20.8733L32.8844 20.7939C32.9189 20.7437 32.9488 20.6905 32.9735 20.635C33 20.5869 33.0217 20.5364 33.0384 20.4842L36.3197 9.71359V9.61826C36.3237 9.5813 36.3237 9.54403 36.3197 9.50707V9.4356C36.3236 9.4119 36.3236 9.38778 36.3197 9.36408C36.3233 9.31386 36.3233 9.26342 36.3197 9.21315H37.3729C37.4646 9.2214 37.5568 9.2214 37.6484 9.21315H37.7213C37.7806 9.19582 37.8377 9.17181 37.8915 9.14168H37.9725L38.1183 9.03049L38.1831 8.98282L38.2965 8.83983V8.79222L38.3776 8.65717C38.3731 8.63091 38.3731 8.60402 38.3776 8.57776C38.3733 8.56487 38.3733 8.55093 38.3776 8.53803C38.3948 8.49147 38.4084 8.44365 38.4181 8.39504C38.4143 8.37938 38.4143 8.36304 38.4181 8.34738C38.4142 8.32373 38.4142 8.29956 38.4181 8.27591C38.4181 8.27591 38.5802 7.96613 38.5802 7.95026Z" fill="black"/>
<path id="Vector_2" d="M16.972 3.9153C17.015 3.95343 17.045 4.00356 17.0581 4.05895C17.0711 4.11434 17.0665 4.17232 17.0449 4.22507L13.4558 16.0123C13.4106 16.141 13.3181 16.2486 13.1965 16.3142C13.0975 16.3791 12.983 16.4174 12.8643 16.4254H1.45674C1.35932 16.4208 1.26703 16.3812 1.19748 16.3142C1.1561 16.2766 1.12707 16.2279 1.11408 16.1742C1.10109 16.1204 1.10474 16.0641 1.12456 16.0123L4.72183 4.22507C4.76328 4.09475 4.85284 3.98428 4.97299 3.9153C5.07358 3.85506 5.18756 3.81963 5.30517 3.81203H16.7127C16.8094 3.81295 16.902 3.84987 16.972 3.9153ZM11.017 13.6374L13.1641 6.59999H7.15243L5.01349 13.6374H11.017ZM27.861 4.03443C27.8999 4.07878 27.9486 4.11394 28.0033 4.13732C28.058 4.1607 28.1173 4.17169 28.177 4.16946H29.6597C29.7161 4.17 29.7717 4.15643 29.8214 4.13003C29.871 4.10362 29.9129 4.06525 29.9432 4.01855C29.9695 3.98207 29.9881 3.94077 29.9979 3.8971C30.0076 3.85344 30.0083 3.80831 29.9999 3.76438L29.7083 1.66745C29.6805 1.5704 29.6306 1.48079 29.5625 1.40534C29.5235 1.36099 29.4749 1.32583 29.4202 1.30245C29.3655 1.27907 29.3061 1.26809 29.2465 1.27031H27.7638C27.7073 1.26977 27.6517 1.28334 27.6021 1.30975C27.5524 1.33615 27.5105 1.37452 27.4802 1.42123C27.4235 1.53243 27.3992 1.60391 27.4235 1.66745L27.7233 3.76438C27.7387 3.86648 27.7869 3.9611 27.861 4.03443ZM32.5683 1.65157C32.5405 1.55451 32.4906 1.4649 32.4224 1.38945C32.3851 1.34527 32.3379 1.31011 32.2845 1.2867C32.2312 1.26328 32.173 1.25223 32.1145 1.25442H30.6238C30.5683 1.25287 30.5133 1.26608 30.4648 1.29265C30.4163 1.31921 30.3761 1.35816 30.3483 1.40534C30.2944 1.4758 30.2711 1.56432 30.2835 1.65157L30.5833 3.74849C30.6021 3.84952 30.6498 3.94319 30.721 4.01855C30.7606 4.06202 30.8094 4.0966 30.8639 4.1199C30.9185 4.14321 30.9775 4.15469 31.037 4.15357H32.5277C32.5832 4.15429 32.6377 4.14073 32.686 4.11424C32.7344 4.08776 32.7748 4.04929 32.8032 4.00267C32.8314 3.96713 32.8511 3.92585 32.8609 3.88187C32.8708 3.83789 32.8704 3.79232 32.8599 3.74849L32.5683 1.65157ZM26.5566 4.82873L26.4107 3.79615H19.2243C19.1115 3.80225 19.0023 3.83791 18.9083 3.8994C18.8487 3.93131 18.7967 3.97552 18.7562 4.029C18.7156 4.08249 18.6874 4.14395 18.6734 4.20918L18.0739 6.179C18.0499 6.22823 18.0417 6.28346 18.0504 6.33734C18.0591 6.39122 18.0842 6.44123 18.1224 6.48085C18.1908 6.54381 18.2799 6.58051 18.3736 6.58411H27.1076L24.9605 13.6215H16.2509C16.1386 13.624 16.0292 13.657 15.935 13.7168C15.8204 13.7882 15.7367 13.8985 15.7 14.0266L15.0923 15.9965C15.0725 16.047 15.0673 16.1019 15.0773 16.1552C15.0873 16.2085 15.1121 16.2579 15.149 16.2983C15.2152 16.3654 15.3051 16.4052 15.4002 16.4094H26.8402C26.9585 16.3995 27.0725 16.3613 27.1723 16.2983C27.292 16.2324 27.3817 16.1246 27.4235 15.9965L30.7129 5.22587H27.0103C26.9516 5.227 26.8932 5.21631 26.8389 5.19445C26.7845 5.1726 26.7354 5.14002 26.6944 5.09878C26.6274 5.02675 26.58 4.93934 26.5566 4.84461V4.82873Z" fill="white"/>
</g>
<defs>
<clipPath id="clip0_1_1868">
<rect width="38.2838" height="20.8821" fill="white" transform="translate(0.299316 0.523438)"/>
</clipPath>
</defs>
</svg>
