<svg width="37" height="14" viewBox="0 0 37 14" fill="none" xmlns="http://www.w3.org/2000/svg">
<g id="Logo" clip-path="url(#clip0_1_1892)">
<path id="Vector" d="M8.81726 0.00378418C7.40373 0.00378418 6.04811 0.565304 5.0486 1.56482L1.78662 4.8268C0.787105 5.82631 0.225586 7.18193 0.225586 8.59546C0.225586 11.539 2.61178 13.9252 5.5553 13.9252C6.96883 13.9252 8.32445 13.3636 9.32396 12.3641L11.5803 10.1078C11.5803 10.1077 11.5803 10.1078 11.5803 10.1078L18.1545 3.5336C18.6318 3.05624 19.2793 2.78806 19.9544 2.78806C21.0846 2.78806 22.0428 3.52469 22.375 4.54405L24.4498 2.46924C23.5033 0.986792 21.8436 0.00378418 19.9544 0.00378418C18.5408 0.00378418 17.1852 0.565304 16.1857 1.56482L7.35519 10.3954C6.87783 10.8727 6.23039 11.1409 5.5553 11.1409C4.14949 11.1409 3.00986 10.0013 3.00986 8.59546C3.00986 7.92037 3.27804 7.27293 3.7554 6.79557L7.01737 3.5336C7.49473 3.05624 8.14217 2.78806 8.81726 2.78806C9.94754 2.78806 10.9057 3.52473 11.2379 4.54411L13.3128 2.46929C12.3662 0.98682 10.7066 0.00378418 8.81726 0.00378418Z" fill="#394149"/>
<path id="Vector_2" d="M18.4924 10.3954C18.0151 10.8727 17.3676 11.1409 16.6925 11.1409C15.5624 11.1409 14.6043 10.4045 14.272 9.38527L12.1973 11.46C13.1438 12.9423 14.8034 13.9252 16.6925 13.9252C18.1061 13.9252 19.4617 13.3636 20.4612 12.3641L29.2917 3.5336C29.7691 3.05624 30.4165 2.78806 31.0916 2.78806C32.4974 2.78806 33.637 3.92769 33.637 5.3335C33.637 6.00859 33.3689 6.65603 32.8915 7.13339L29.6295 10.3954C29.1522 10.8727 28.5047 11.1409 27.8296 11.1409C26.6995 11.1409 25.7413 10.4043 25.409 9.38504L23.3343 11.4598C24.2808 12.9422 25.9404 13.9252 27.8296 13.9252C29.2432 13.9252 30.5988 13.3636 31.5983 12.3641L34.8603 9.10215C35.8598 8.10265 36.4213 6.74703 36.4213 5.3335C36.4213 2.38998 34.0351 0.00378418 31.0916 0.00378418C29.6781 0.00378418 28.3225 0.565304 27.3229 1.56482L18.4924 10.3954Z" fill="#394149"/>
</g>
<defs>
<clipPath id="clip0_1_1892">
<rect width="36.1956" height="13.9214" fill="white" transform="translate(0.225586 0.00378418)"/>
</clipPath>
</defs>
</svg>
