<svg width="31" height="22" viewBox="0 0 31 22" fill="none" xmlns="http://www.w3.org/2000/svg">
<g id="Icon">
<path id="Vector" d="M17.0185 12.0321L12.3793 19.9776L7.74004 12.0321H17.0185ZM18.2614 11.322H6.49219L12.3793 21.383L18.2614 11.322Z" fill="white"/>
<path id="Vector_2" d="M25.0844 2.14975L29.7236 10.0953H20.4451L25.0844 2.14975ZM25.0844 0.729492L19.1973 10.7905H30.9715L25.0844 0.729492Z" fill="white"/>
<path id="Vector_3" d="M0.851562 0.729492L5.78769 9.62848L11.1817 0.952948L0.851562 0.729492Z" fill="#4CAF4F"/>
<path id="Vector_4" d="M12.3791 1.50909L17.5568 10.3584H7.19141L12.3791 1.50909Z" fill="#4CAF4F"/>
<path id="Vector_5" d="M18.8902 12.2903L24.0728 21.383H13.4609L18.7291 12.2903H18.8902Z" fill="#4CAF4F"/>
<path id="Vector_6" d="M20.0122 11.7391L25.0842 20.6927L30.2266 11.7391H20.0122Z" fill="#4CAF4F"/>
</g>
</svg>
