<svg width="28" height="20" viewBox="0 0 28 20" fill="none" xmlns="http://www.w3.org/2000/svg">
<g id="Logo" clip-path="url(#clip0_1_1865)">
<path id="Vector" fill-rule="evenodd" clip-rule="evenodd" d="M7.04552 3.08354L0.0947266 9.96445C1.48501 11.3408 3.0732 12.5007 4.80478 13.4082C5.2834 14.665 6.03361 15.8437 7.05542 16.8552C10.8997 20.6608 17.1326 20.6608 20.9768 16.8552C21.9986 15.8437 22.7489 14.665 23.2275 13.4081C24.959 12.5007 26.5472 11.3408 27.9375 9.96445L20.9923 3.08914C20.9872 3.08399 20.982 3.07885 20.9768 3.07371C17.1326 -0.731928 10.8997 -0.731928 7.05542 3.07371C7.05213 3.07699 7.04882 3.08026 7.04552 3.08354ZM20.3117 14.6496C18.2862 15.3263 16.1598 15.6729 14.0161 15.6729C11.8724 15.6729 9.74615 15.3263 7.72059 14.6496C7.94006 14.9379 8.18236 15.2145 8.44756 15.477C11.523 18.5216 16.5092 18.5216 19.5847 15.477C19.8499 15.2145 20.0922 14.9379 20.3117 14.6496ZM8.59032 4.31404C9.11259 4.65561 9.66791 4.94789 10.249 5.18619C11.4433 5.67591 12.7234 5.92797 14.0161 5.92797C15.3089 5.92797 16.5889 5.67591 17.7832 5.18619C18.3643 4.94789 18.9196 4.6556 19.442 4.31403C16.4049 1.45328 11.6273 1.45329 8.59032 4.31404Z" fill="#3B4158"/>
</g>
<defs>
<clipPath id="clip0_1_1865">
<rect width="27.8428" height="19.4899" fill="white" transform="translate(0.0947266 0.219482)"/>
</clipPath>
</defs>
</svg>
