<svg width="29" height="28" viewBox="0 0 29 28" fill="none" xmlns="http://www.w3.org/2000/svg">
<g id="Logo" clip-path="url(#clip0_1_2327)">
<path id="Vector" fill-rule="evenodd" clip-rule="evenodd" d="M7.34937 0.0547714C11.1936 0.0547714 14.3101 3.17118 14.3101 7.01547V0.0547714H21.2708C25.115 0.0547714 28.2315 3.17118 28.2315 7.01547C28.2315 10.8597 25.115 13.9762 21.2708 13.9762C25.115 13.9762 28.2315 17.0926 28.2315 20.9369C28.2315 22.8457 27.4631 24.5751 26.2188 25.8326L26.1927 25.8588L26.1696 25.8818C24.9118 27.1279 23.1812 27.8976 21.2708 27.8976C19.3733 27.8976 17.6532 27.1383 16.3976 25.9071C16.3813 25.8911 16.365 25.875 16.3488 25.8588C16.3335 25.8436 16.3184 25.8283 16.3033 25.8129C15.0704 24.557 14.3101 22.8357 14.3101 20.9369C14.3101 24.7811 11.1936 27.8976 7.34937 27.8976C3.50508 27.8976 0.388672 24.7811 0.388672 20.9369V13.9762H7.34937C3.50508 13.9762 0.388672 10.8597 0.388672 7.01547C0.388672 3.17118 3.50508 0.0547714 7.34937 0.0547714ZM12.9179 7.01547C12.9179 10.0909 10.4248 12.584 7.34937 12.584V1.44691C10.4248 1.44691 12.9179 3.94004 12.9179 7.01547ZM26.8393 20.9369C26.8393 17.8614 24.3462 15.3683 21.2708 15.3683C18.1953 15.3683 15.7022 17.8614 15.7022 20.9369H26.8393ZM1.78081 15.3683V20.9369C1.78081 24.0123 4.27394 26.5054 7.34937 26.5054C10.4248 26.5054 12.9179 24.0123 12.9179 20.9369V15.3683H1.78081ZM15.7022 12.584V1.44691H21.2708C24.3462 1.44691 26.8393 3.94004 26.8393 7.01547C26.8393 10.0909 24.3462 12.584 21.2708 12.584H15.7022Z" fill="#5417D7"/>
</g>
<defs>
<clipPath id="clip0_1_2327">
<rect width="27.8428" height="27.8428" fill="white" transform="translate(0.388672 0.0547714)"/>
</clipPath>
</defs>
</svg>
