<svg width="39" height="22" viewBox="0 0 39 22" fill="none" xmlns="http://www.w3.org/2000/svg">
<g id="Logo" clip-path="url(#clip0_1_1896)">
<path id="Vector" d="M38.8868 7.95026C38.8908 7.92123 38.8908 7.89189 38.8868 7.86286C38.8906 7.83921 38.8906 7.8151 38.8868 7.79139L38.6032 5.75007C38.5623 5.50585 38.4529 5.27758 38.2872 5.09081L38.2386 5.0352L38.1495 4.94783L33.2397 0.801639L33.3774 0.936679C33.2648 0.804507 33.1233 0.698787 32.9635 0.627307C32.8037 0.555826 32.6295 0.520401 32.4538 0.523645H30.9631C30.7206 0.518936 30.4838 0.594496 30.2906 0.738106C30.0877 0.595361 29.8435 0.520188 29.5938 0.523645H28.103C27.9075 0.520535 27.7147 0.568107 27.5439 0.661557C27.3732 0.755008 27.2307 0.891019 27.1308 1.05582C26.9769 1.29119 26.919 1.57479 26.9688 1.85011L27.1551 3.13685C27.0317 3.06824 26.8919 3.03264 26.75 3.03361H19.5312C19.2722 3.0352 19.0191 3.10962 18.802 3.24805C18.592 3.37691 18.4235 3.56141 18.3159 3.78022L17.7568 3.3116C17.5368 3.11201 17.2464 3.00383 16.9467 3.00977H5.62012C5.3602 3.01441 5.10605 3.0856 4.88286 3.21629C4.57752 3.3915 4.35374 3.67639 4.25899 4.01057L0.661724 15.8058C0.59451 16.0001 0.587898 16.2097 0.642735 16.4078C0.697571 16.6058 0.811373 16.7834 0.969602 16.9178C1.01083 16.9521 1.05412 16.9839 1.09924 17.0131C1.09924 17.0131 1.02631 16.9654 0.985797 16.9257L5.89561 21.0799C6.1033 21.2673 6.37485 21.3721 6.65714 21.3737H18.0728C18.3335 21.3671 18.5879 21.2931 18.8101 21.1593C18.9358 21.0919 19.0483 21.0032 19.1423 20.8971L19.1828 20.8415L19.2476 20.7621L19.2962 20.6748L19.831 21.1275C20.0357 21.3075 20.3013 21.4066 20.5763 21.4055H32.0163C32.2767 21.397 32.5306 21.3232 32.7536 21.1911C32.8765 21.1196 32.9883 21.0313 33.0858 20.9289L33.1263 20.8733L33.1911 20.7939C33.2255 20.7437 33.2554 20.6905 33.2802 20.635C33.3067 20.5869 33.3284 20.5364 33.345 20.4842L36.6263 9.71359V9.61826C36.6303 9.5813 36.6303 9.54403 36.6263 9.50707V9.4356C36.6302 9.4119 36.6302 9.38778 36.6263 9.36408C36.63 9.31386 36.63 9.26342 36.6263 9.21315H37.6796C37.7712 9.2214 37.8634 9.2214 37.955 9.21315H38.028C38.0873 9.19582 38.1444 9.17181 38.1981 9.14168H38.2792L38.4249 9.03049L38.4898 8.98282L38.6032 8.83983V8.79222L38.6842 8.65717C38.6797 8.63091 38.6797 8.60402 38.6842 8.57776C38.6799 8.56487 38.6799 8.55093 38.6842 8.53803C38.7014 8.49147 38.715 8.44365 38.7247 8.39504C38.721 8.37938 38.721 8.36304 38.7247 8.34738C38.7208 8.32373 38.7208 8.29956 38.7247 8.27591C38.7247 8.27591 38.8868 7.96613 38.8868 7.95026Z" fill="black"/>
<path id="Vector_2" d="M17.2786 3.9153C17.3216 3.95343 17.3517 4.00356 17.3647 4.05895C17.3778 4.11434 17.3731 4.17232 17.3516 4.22507L13.7624 16.0123C13.7172 16.141 13.6247 16.2486 13.5031 16.3142C13.4042 16.3791 13.2896 16.4174 13.1709 16.4254H1.76338C1.66596 16.4208 1.57367 16.3812 1.50412 16.3142C1.46274 16.2766 1.43371 16.2279 1.42072 16.1742C1.40773 16.1204 1.41139 16.0641 1.4312 16.0123L5.02847 4.22507C5.06992 4.09475 5.15948 3.98428 5.27963 3.9153C5.38022 3.85506 5.4942 3.81963 5.61181 3.81203H17.0193C17.116 3.81295 17.2087 3.84987 17.2786 3.9153ZM11.3237 13.6374L13.4707 6.59999H7.45907L5.32013 13.6374H11.3237ZM28.1676 4.03443C28.2066 4.07878 28.2552 4.11394 28.3099 4.13732C28.3646 4.1607 28.424 4.17169 28.4836 4.16946H29.9663C30.0228 4.17 30.0784 4.15643 30.128 4.13003C30.1777 4.10362 30.2196 4.06525 30.2499 4.01855C30.2762 3.98207 30.2948 3.94077 30.3045 3.8971C30.3143 3.85344 30.3149 3.80831 30.3065 3.76438L30.0149 1.66745C29.9871 1.5704 29.9373 1.48079 29.8691 1.40534C29.8301 1.36099 29.7815 1.32583 29.7268 1.30245C29.6721 1.27907 29.6127 1.26809 29.5531 1.27031H28.0704C28.014 1.26977 27.9583 1.28334 27.9087 1.30975C27.8591 1.33615 27.8171 1.37452 27.7869 1.42123C27.7301 1.53243 27.7058 1.60391 27.7301 1.66745L28.0299 3.76438C28.0453 3.86648 28.0936 3.9611 28.1676 4.03443ZM32.8749 1.65157C32.8471 1.55451 32.7972 1.4649 32.7291 1.38945C32.6918 1.34527 32.6446 1.31011 32.5912 1.2867C32.5378 1.26328 32.4796 1.25223 32.4212 1.25442H30.9304C30.8749 1.25287 30.82 1.26608 30.7715 1.29265C30.723 1.31921 30.6827 1.35816 30.655 1.40534C30.6011 1.4758 30.5777 1.56432 30.5902 1.65157L30.8899 3.74849C30.9087 3.84952 30.9565 3.94319 31.0277 4.01855C31.0673 4.06202 31.116 4.0966 31.1706 4.1199C31.2251 4.14321 31.2841 4.15469 31.3436 4.15357H32.8344C32.8898 4.15429 32.9444 4.14073 32.9927 4.11424C33.0411 4.08776 33.0815 4.04929 33.1099 4.00267C33.1381 3.96713 33.1577 3.92585 33.1676 3.88187C33.1774 3.83789 33.177 3.79232 33.1666 3.74849L32.8749 1.65157ZM26.8632 4.82873L26.7174 3.79615H19.531C19.4181 3.80225 19.309 3.83791 19.215 3.8994C19.1553 3.93131 19.1034 3.97552 19.0628 4.029C19.0223 4.08249 18.994 4.14395 18.9801 4.20918L18.3805 6.179C18.3566 6.22823 18.3484 6.28346 18.357 6.33734C18.3658 6.39122 18.3909 6.44123 18.4291 6.48085C18.4974 6.54381 18.5866 6.58051 18.6803 6.58411H27.4142L25.2672 13.6215H16.5575C16.4452 13.624 16.3359 13.657 16.2416 13.7168C16.127 13.7882 16.0433 13.8985 16.0066 14.0266L15.399 15.9965C15.3791 16.047 15.3739 16.1019 15.3839 16.1552C15.394 16.2085 15.4188 16.2579 15.4557 16.2983C15.5219 16.3654 15.6117 16.4052 15.7068 16.4094H27.1468C27.2651 16.3995 27.3792 16.3613 27.479 16.2983C27.5986 16.2324 27.6884 16.1246 27.7301 15.9965L31.0195 5.22587H27.3169C27.2582 5.227 27.1999 5.21631 27.1455 5.19445C27.0912 5.1726 27.042 5.14002 27.001 5.09878C26.934 5.02675 26.8866 4.93934 26.8632 4.84461V4.82873Z" fill="white"/>
</g>
<defs>
<clipPath id="clip0_1_1896">
<rect width="38.2838" height="20.8821" fill="white" transform="translate(0.605957 0.523438)"/>
</clipPath>
</defs>
</svg>
