<svg width="28" height="28" viewBox="0 0 28 28" fill="none" xmlns="http://www.w3.org/2000/svg">
<g id="Logo" clip-path="url(#clip0_1_1862)">
<path id="Vector" fill-rule="evenodd" clip-rule="evenodd" d="M6.97876 0.14978C10.823 0.14978 13.9395 3.26619 13.9395 7.11048V0.14978H20.9002C24.7444 0.14978 27.8608 3.26619 27.8608 7.11048C27.8608 10.9547 24.7444 14.0712 20.9002 14.0712C24.7444 14.0712 27.8608 17.1876 27.8608 21.0319C27.8608 22.9407 27.0925 24.6701 25.8482 25.9276L25.8221 25.9538L25.799 25.9768C24.5412 27.2229 22.8106 27.9926 20.9002 27.9926C19.0027 27.9926 17.2826 27.2334 16.027 26.0021C16.0107 25.9861 15.9944 25.97 15.9782 25.9538C15.9629 25.9386 15.9478 25.9233 15.9327 25.9079C14.6998 24.6521 13.9395 22.9307 13.9395 21.0319C13.9395 24.8761 10.823 27.9926 6.97876 27.9926C3.13447 27.9926 0.0180664 24.8761 0.0180664 21.0319V14.0712H6.97876C3.13447 14.0712 0.0180664 10.9547 0.0180664 7.11048C0.0180664 3.26619 3.13447 0.14978 6.97876 0.14978ZM12.5473 7.11048C12.5473 10.1859 10.0542 12.679 6.97876 12.679V1.54192C10.0542 1.54192 12.5473 4.03505 12.5473 7.11048ZM26.4687 21.0319C26.4687 17.9564 23.9756 15.4633 20.9002 15.4633C17.8247 15.4633 15.3316 17.9564 15.3316 21.0319H26.4687ZM1.41021 15.4633V21.0319C1.41021 24.1073 3.90333 26.6004 6.97876 26.6004C10.0542 26.6004 12.5473 24.1073 12.5473 21.0319V15.4633H1.41021ZM15.3316 12.679V1.54192H20.9002C23.9756 1.54192 26.4687 4.03505 26.4687 7.11048C26.4687 10.1859 23.9756 12.679 20.9002 12.679H15.3316Z" fill="#263238"/>
</g>
<defs>
<clipPath id="clip0_1_1862">
<rect width="27.8428" height="27.8428" fill="white" transform="translate(0.0180664 0.14978)"/>
</clipPath>
</defs>
</svg>
