<svg width="97" height="18" viewBox="0 0 97 18" fill="none" xmlns="http://www.w3.org/2000/svg">
<g id="Nexcent">
<path d="M15.5137 0.165771V17.69H12.3135L4.68939 6.66036H4.56104V17.69H0.855957V0.165771H4.10753L11.6717 11.1869H11.8257V0.165771H15.5137Z" fill="white"/>
<path d="M24.4962 17.9467C23.1442 17.9467 21.9805 17.6729 21.005 17.1253C20.0352 16.5719 19.288 15.7904 18.7631 14.7807C18.2383 13.7653 17.9759 12.5645 17.9759 11.1783C17.9759 9.82637 18.2383 8.63983 18.7631 7.61872C19.288 6.59761 20.0267 5.80183 20.9793 5.23138C21.9377 4.66093 23.0615 4.3757 24.3507 4.3757C25.2178 4.3757 26.025 4.51546 26.7723 4.79498C27.5253 5.0688 28.1813 5.48238 28.7403 6.03572C29.3051 6.58905 29.7443 7.285 30.0581 8.12357C30.3718 8.95643 30.5287 9.9319 30.5287 11.05V12.0511H19.4306V9.79214H27.0974C27.0974 9.26732 26.9833 8.8024 26.7552 8.39738C26.527 7.99236 26.2104 7.67576 25.8054 7.44758C25.406 7.2137 24.9411 7.09676 24.4106 7.09676C23.8573 7.09676 23.3667 7.22511 22.9388 7.48181C22.5167 7.73281 22.1858 8.07223 21.9463 8.50006C21.7067 8.9222 21.584 9.39282 21.5783 9.91193V12.0597C21.5783 12.71 21.6981 13.2719 21.9377 13.7454C22.183 14.2188 22.5281 14.5839 22.9731 14.8406C23.418 15.0973 23.9457 15.2257 24.5561 15.2257C24.9611 15.2257 25.3319 15.1686 25.6684 15.0545C26.005 14.9405 26.2931 14.7693 26.5327 14.5411C26.7723 14.313 26.9548 14.0334 27.0803 13.7026L30.4517 13.9251C30.2805 14.7351 29.9297 15.4425 29.3992 16.0471C28.8744 16.6461 28.1955 17.1139 27.3627 17.4504C26.5355 17.7813 25.58 17.9467 24.4962 17.9467Z" fill="white"/>
<path d="M35.7184 4.54684L38.1314 9.14182L40.6043 4.54684H44.3436L40.5358 11.1184L44.4463 17.69H40.7241L38.1314 13.1464L35.5815 17.69H31.8165L35.7184 11.1184L31.9534 4.54684H35.7184Z" fill="white"/>
<path d="M51.9762 17.9467C50.63 17.9467 49.472 17.6615 48.5022 17.0911C47.5381 16.5149 46.7965 15.7163 46.2774 14.6952C45.764 13.6741 45.5073 12.4989 45.5073 11.1698C45.5073 9.82351 45.7669 8.64268 46.286 7.62727C46.8108 6.60617 47.5552 5.81039 48.5193 5.23993C49.4834 4.66378 50.63 4.3757 51.9591 4.3757C53.1057 4.3757 54.1097 4.58392 54.9711 5.00035C55.8325 5.41678 56.5142 6.00149 57.0162 6.75448C57.5182 7.50748 57.7948 8.39168 57.8462 9.40708H54.4064C54.3094 8.75106 54.0527 8.2234 53.6362 7.82408C53.2255 7.41906 52.6864 7.21655 52.019 7.21655C51.4543 7.21655 50.9608 7.37057 50.5387 7.67861C50.1223 7.98095 49.7971 8.42305 49.5632 9.00491C49.3293 9.58678 49.2124 10.2913 49.2124 11.1184C49.2124 11.957 49.3265 12.6701 49.5547 13.2576C49.7886 13.8452 50.1166 14.293 50.5387 14.601C50.9608 14.9091 51.4543 15.0631 52.019 15.0631C52.4354 15.0631 52.8091 14.9775 53.14 14.8064C53.4765 14.6353 53.7532 14.3871 53.97 14.062C54.1924 13.7311 54.3379 13.3346 54.4064 12.8726H57.8462C57.7891 13.8766 57.5153 14.7608 57.0247 15.5252C56.5398 16.2839 55.8696 16.8771 55.0139 17.305C54.1582 17.7328 53.1457 17.9467 51.9762 17.9467Z" fill="white"/>
<path d="M66.1698 17.9467C64.8178 17.9467 63.6541 17.6729 62.6786 17.1253C61.7088 16.5719 60.9616 15.7904 60.4367 14.7807C59.9119 13.7653 59.6495 12.5645 59.6495 11.1783C59.6495 9.82637 59.9119 8.63983 60.4367 7.61872C60.9616 6.59761 61.7003 5.80183 62.6529 5.23138C63.6113 4.66093 64.7351 4.3757 66.0243 4.3757C66.8914 4.3757 67.6986 4.51546 68.4459 4.79498C69.1989 5.0688 69.8549 5.48238 70.4139 6.03572C70.9787 6.58905 71.4179 7.285 71.7317 8.12357C72.0454 8.95643 72.2023 9.9319 72.2023 11.05V12.0511H61.1042V9.79214H68.771C68.771 9.26732 68.6569 8.8024 68.4288 8.39738C68.2006 7.99236 67.884 7.67576 67.479 7.44758C67.0796 7.2137 66.6147 7.09676 66.0842 7.09676C65.5309 7.09676 65.0403 7.22511 64.6124 7.48181C64.1903 7.73281 63.8594 8.07223 63.6199 8.50006C63.3803 8.9222 63.2576 9.39282 63.2519 9.91193V12.0597C63.2519 12.71 63.3717 13.2719 63.6113 13.7454C63.8566 14.2188 64.2017 14.5839 64.6467 14.8406C65.0916 15.0973 65.6193 15.2257 66.2297 15.2257C66.6347 15.2257 67.0055 15.1686 67.3421 15.0545C67.6786 14.9405 67.9667 14.7693 68.2063 14.5411C68.4459 14.313 68.6284 14.0334 68.7539 13.7026L72.1253 13.9251C71.9541 14.7351 71.6033 15.4425 71.0728 16.0471C70.548 16.6461 69.8692 17.1139 69.0363 17.4504C68.2091 17.7813 67.2536 17.9467 66.1698 17.9467Z" fill="white"/>
<path d="M78.2263 10.0916V17.69H74.5811V4.54684H78.0551V6.86572H78.2091C78.5001 6.10132 78.9878 5.49664 79.6724 5.05169C80.3569 4.60103 81.1869 4.3757 82.1624 4.3757C83.0751 4.3757 83.8709 4.57536 84.5497 4.97468C85.2285 5.37399 85.7562 5.94444 86.1327 6.68603C86.5092 7.42191 86.6975 8.30041 86.6975 9.32151V17.69H83.0523V9.97183C83.058 9.16749 82.8526 8.54 82.4362 8.08934C82.0198 7.63298 81.4465 7.4048 80.7163 7.4048C80.2257 7.4048 79.7921 7.51033 79.4156 7.7214C79.0449 7.93247 78.7539 8.24051 78.5429 8.64553C78.3375 9.04485 78.232 9.52688 78.2263 10.0916Z" fill="white"/>
<path d="M96.5613 4.54684V7.285H88.6463V4.54684H96.5613ZM90.4432 1.39795H94.0884V13.6512C94.0884 13.9878 94.1397 14.2502 94.2424 14.4385C94.3451 14.621 94.4877 14.7494 94.6702 14.8235C94.8585 14.8977 95.0753 14.9348 95.3205 14.9348C95.4917 14.9348 95.6628 14.9205 95.834 14.892C96.0051 14.8577 96.1363 14.8321 96.2276 14.815L96.8009 17.5275C96.6183 17.5845 96.3616 17.6501 96.0308 17.7243C95.6999 17.8041 95.2977 17.8526 94.8243 17.8697C93.9458 17.904 93.1756 17.787 92.5139 17.5189C91.8579 17.2508 91.3474 16.8344 90.9823 16.2696C90.6172 15.7049 90.4375 14.9918 90.4432 14.1304V1.39795Z" fill="white"/>
</g>
</svg>
